<?xml version="1.0" encoding="iso-8859-1"?>
<!-- Uploaded to: SVG Repo, www.svgrepo.com, Generator: SVG Repo Mixer Tools -->
<!DOCTYPE svg PUBLIC "-//W3C//DTD SVG 1.1//EN" "http://www.w3.org/Graphics/SVG/1.1/DTD/svg11.dtd">
<svg fill="#000000" height="20px" width="20px" version="1.1" id="Capa_1" xmlns="http://www.w3.org/2000/svg"
	xmlns:xlink="http://www.w3.org/1999/xlink" viewBox="0 0 192.168 192.168" xml:space="preserve">
	<path d="M49.903,22.668c0,10.78-7.567,19.82-17.667,22.104v142.396c0,2.762-2.239,5-5,5s-5-2.238-5-5V44.771
	C12.136,42.488,4.57,33.448,4.57,22.668c0-12.499,10.168-22.667,22.667-22.667S49.903,10.169,49.903,22.668z M185.163,36.874
	L166.107,2.572c-1.341-2.414-4.386-3.282-6.799-1.942c-2.414,1.342-3.284,4.386-1.942,6.8l19.057,34.302
	c1.845,3.32,1.473,7.357-0.946,10.286l-14.351,17.372c-2.831,3.427-4.389,7.761-4.389,12.205v105.573c0,2.762,2.239,5,5,5
	s5-2.238,5-5V81.594c0-2.125,0.746-4.197,2.099-5.836l14.35-17.372C188.245,52.262,189.021,43.818,185.163,36.874z M144.57,19.001
	h-13.978c-2.207-10.827-11.803-19-23.272-19H82.57c-2.761,0-5,2.238-5,5v38c0,2.762,2.239,5,5,5h2.201l-7.104,35.52
	c-0.064,0.323-0.097,0.651-0.097,0.98v102.666c0,2.762,2.239,5,5,5h20c2.761,0,5-2.238,5-5V84.501c0-0.329-0.033-0.657-0.097-0.98
	l-7.104-35.52h6.951c11.469,0,21.065-8.173,23.272-19h13.978c2.761,0,5-2.238,5-5S147.331,19.001,144.57,19.001z" />
</svg>