<svg width="801" height="800" viewBox="0 0 801 800" fill="none" xmlns="http://www.w3.org/2000/svg">
<rect x="56" y="85" width="663" height="427" fill="#D9D9D9"/>
<path d="M253.928 255.938C253.03 255.7 252.07 255.818 251.225 256.271C250.784 256.508 250.402 256.821 250.095 257.191L245.108 255.866C244.645 254.017 243.216 252.485 241.181 251.944L241.181 251.944C239.239 251.428 237.131 251.913 235.54 253.24C235.263 253.471 235.09 253.798 235.063 254.142C235.036 254.486 235.156 254.818 235.397 255.06C236.214 255.883 236.484 257.094 236.102 258.222L231.827 270.855C231.326 272.338 231.443 273.888 232.158 275.221C232.873 276.554 234.1 277.509 235.613 277.911C237.554 278.427 239.662 277.944 241.253 276.616C241.531 276.384 241.703 276.058 241.731 275.714C241.746 275.519 241.714 275.328 241.64 275.155L243.587 275.673L230.658 313.882C230.36 314.762 230.43 315.682 230.854 316.473C231.278 317.264 232.006 317.831 232.904 318.07C233.831 318.316 234.796 318.17 235.606 317.735C236.416 317.3 237.072 316.577 237.379 315.669L256.174 260.125C256.472 259.246 256.402 258.326 255.978 257.535C255.553 256.744 254.826 256.177 253.928 255.938ZM244.966 259.001C245.022 258.835 245.07 258.669 245.111 258.503L249.043 259.549L248.498 261.16L244.587 260.121L244.966 259.001ZM243.223 264.152L243.769 262.54L247.679 263.58L247.134 265.191L243.223 264.152ZM246.315 267.611L245.77 269.222L241.859 268.183L242.405 266.571L246.315 267.611ZM238.223 270.978C237.961 271.751 237.872 272.547 237.946 273.316C237.948 273.373 237.954 273.429 237.964 273.484C238.048 274.147 238.253 274.786 238.571 275.372C237.888 275.632 237.14 275.68 236.431 275.492C235.578 275.265 234.886 274.726 234.482 273.974C234.079 273.222 234.013 272.348 234.296 271.511L238.571 258.878C239.078 257.378 238.936 255.796 238.223 254.483C238.906 254.223 239.654 254.175 240.362 254.364C242.124 254.832 243.082 256.618 242.498 258.344L240.35 264.691C240.349 264.696 240.347 264.7 240.345 264.705C240.344 264.71 240.342 264.715 240.34 264.72L238.223 270.978ZM240.551 272.229C240.578 272.03 240.625 271.83 240.691 271.634L241.04 270.602L244.951 271.642L244.406 273.254L240.551 272.229ZM253.705 259.469L234.911 315.013C234.748 315.495 234.215 315.781 233.723 315.65C233.231 315.519 232.963 315.021 233.126 314.538L249.193 267.058C249.193 267.058 249.193 267.058 249.193 267.057C249.193 267.057 249.193 267.056 249.193 267.056L251.921 258.995C252.084 258.513 252.617 258.227 253.109 258.358C253.348 258.421 253.541 258.572 253.653 258.782C253.766 258.992 253.785 259.236 253.705 259.469Z" fill="black"/>
<path d="M605.64 193.319C604.851 192.828 603.899 192.66 602.958 192.846C602.467 192.943 602.01 193.13 601.608 193.395L597.228 190.667C597.326 188.764 596.408 186.881 594.621 185.768L594.62 185.768C592.915 184.706 590.757 184.552 588.847 185.356C588.514 185.496 588.254 185.757 588.127 186.079C588 186.4 588.018 186.753 588.177 187.054C588.718 188.08 588.622 189.317 587.926 190.284L580.141 201.113C579.227 202.383 578.885 203.9 579.179 205.384C579.472 206.868 580.366 208.14 581.694 208.968C583.4 210.03 585.557 210.184 587.467 209.38C587.801 209.24 588.061 208.979 588.188 208.657C588.26 208.476 588.285 208.284 588.265 208.097L589.975 209.162L566.427 241.913C565.885 242.667 565.682 243.567 565.856 244.447C566.03 245.328 566.56 246.083 567.349 246.574C568.163 247.08 569.128 247.223 570.03 247.045C570.933 246.866 571.771 246.367 572.331 245.588L606.562 197.98C607.104 197.226 607.307 196.326 607.133 195.445C606.958 194.565 606.428 193.81 605.64 193.319ZM596.174 193.624C596.276 193.482 596.371 193.337 596.458 193.19L599.912 195.341L598.919 196.722L595.484 194.584L596.174 193.624ZM593 198.039L593.993 196.657L597.428 198.796L596.435 200.178L593 198.039ZM594.944 202.251L593.95 203.633L590.515 201.494L591.508 200.113L594.944 202.251ZM586.22 203.102C585.744 203.765 585.426 204.499 585.27 205.257C585.256 205.312 585.245 205.367 585.239 205.423C585.125 206.081 585.134 206.752 585.267 207.406C584.537 207.455 583.808 207.282 583.186 206.894C582.436 206.427 581.932 205.709 581.766 204.872C581.601 204.035 581.794 203.179 582.309 202.462L590.095 191.634C591.019 190.349 591.346 188.794 591.048 187.33C591.778 187.281 592.507 187.454 593.129 187.842C594.677 188.805 595.07 190.793 594.006 192.273L590.095 197.713C590.092 197.717 590.089 197.721 590.086 197.726C590.083 197.73 590.08 197.734 590.077 197.738L586.22 203.102ZM588.08 204.98C588.164 204.797 588.267 204.62 588.388 204.452L589.024 203.568L592.459 205.707L591.466 207.088L588.08 204.98ZM604.393 196.63L570.162 244.238C569.865 244.652 569.272 244.769 568.84 244.5C568.408 244.231 568.298 243.676 568.595 243.263L597.857 202.565C597.857 202.565 597.857 202.565 597.857 202.564C597.858 202.564 597.858 202.564 597.858 202.563L602.826 195.654C603.123 195.241 603.716 195.123 604.149 195.392C604.358 195.523 604.499 195.723 604.545 195.957C604.591 196.191 604.537 196.43 604.393 196.63Z" fill="black"/>
<path d="M252.767 386.089C252.031 386.657 251.542 387.491 251.388 388.438C251.308 388.932 251.324 389.426 251.431 389.894L247.348 393.048C245.598 392.292 243.513 392.496 241.847 393.783L241.847 393.783C240.257 395.011 239.36 396.98 239.447 399.05C239.462 399.411 239.616 399.746 239.873 399.977C240.13 400.208 240.467 400.314 240.805 400.27C241.955 400.122 243.081 400.643 243.745 401.632L251.178 412.705C252.05 414.005 253.353 414.854 254.846 415.097C256.338 415.339 257.843 414.946 259.082 413.989C260.672 412.761 261.569 410.793 261.482 408.722C261.467 408.361 261.312 408.026 261.055 407.795C260.91 407.664 260.739 407.574 260.557 407.527L262.151 406.296L284.633 439.788C285.151 440.559 285.924 441.063 286.81 441.207C287.695 441.35 288.588 441.117 289.323 440.549C290.082 439.963 290.553 439.108 290.7 438.2C290.847 437.293 290.672 436.332 290.137 435.536L257.457 386.851C256.939 386.08 256.166 385.576 255.28 385.432C254.394 385.288 253.502 385.522 252.767 386.089ZM249.751 395.067C249.653 394.922 249.551 394.783 249.444 394.65L252.664 392.162L253.613 393.575L250.41 396.049L249.751 395.067ZM252.782 399.582L251.833 398.169L255.036 395.696L255.984 397.108L252.782 399.582ZM257.408 399.229L258.356 400.642L255.154 403.115L254.205 401.703L257.408 399.229ZM255.163 407.701C255.618 408.379 256.195 408.934 256.851 409.343C256.897 409.376 256.946 409.405 256.996 409.431C257.572 409.767 258.205 409.993 258.864 410.096C258.655 410.797 258.238 411.42 257.658 411.868C256.959 412.408 256.11 412.63 255.268 412.493C254.426 412.356 253.691 411.877 253.199 411.144L245.766 400.071C244.884 398.756 243.54 397.907 242.065 397.676C242.274 396.975 242.69 396.352 243.27 395.904C244.713 394.79 246.713 395.114 247.729 396.628L251.463 402.191C251.466 402.195 251.469 402.199 251.472 402.204C251.475 402.208 251.478 402.212 251.481 402.216L255.163 407.701ZM257.571 406.614C257.429 406.471 257.3 406.312 257.184 406.14L256.577 405.236L259.78 402.763L260.728 404.175L257.571 406.614ZM255.435 388.412L288.116 437.098C288.399 437.52 288.302 438.117 287.9 438.429C287.497 438.74 286.938 438.649 286.655 438.226L258.718 396.609C258.718 396.608 258.718 396.608 258.717 396.607C258.717 396.607 258.717 396.607 258.717 396.606L253.974 389.541C253.69 389.118 253.787 388.521 254.19 388.21C254.385 388.059 254.622 387.997 254.857 388.035C255.093 388.074 255.298 388.207 255.435 388.412Z" fill="black"/>
<path d="M137.905 456.834C137.17 457.402 136.68 458.236 136.527 459.183C136.446 459.677 136.463 460.17 136.57 460.639L132.486 463.793C130.737 463.037 128.652 463.241 126.985 464.528L126.985 464.528C125.396 465.756 124.498 467.725 124.585 469.795C124.601 470.156 124.755 470.491 125.012 470.722C125.269 470.953 125.606 471.059 125.944 471.015C127.093 470.867 128.22 471.388 128.883 472.377L136.316 483.45C137.189 484.75 138.491 485.599 139.984 485.841C141.477 486.084 142.981 485.69 144.22 484.734C145.81 483.506 146.707 481.538 146.62 479.467C146.605 479.106 146.451 478.771 146.194 478.54C146.049 478.409 145.878 478.319 145.695 478.272L147.29 477.041L169.772 510.532C170.29 511.304 171.062 511.808 171.948 511.951C172.834 512.095 173.727 511.862 174.462 511.294C175.221 510.708 175.691 509.853 175.839 508.945C175.986 508.037 175.81 507.077 175.276 506.281L142.595 457.596C142.077 456.824 141.305 456.32 140.419 456.177C139.533 456.033 138.64 456.266 137.905 456.834ZM134.889 465.812C134.792 465.666 134.689 465.527 134.582 465.395L137.803 462.907L138.751 464.32L135.549 466.793L134.889 465.812ZM137.92 470.327L136.972 468.914L140.175 466.44L141.123 467.853L137.92 470.327ZM142.546 469.974L143.495 471.387L140.292 473.86L139.344 472.447L142.546 469.974ZM140.301 478.446C140.756 479.124 141.334 479.678 141.989 480.088C142.036 480.121 142.084 480.15 142.134 480.175C142.711 480.511 143.343 480.738 144.002 480.841C143.794 481.542 143.377 482.165 142.797 482.613C142.098 483.153 141.249 483.375 140.407 483.238C139.565 483.101 138.83 482.622 138.338 481.889L130.905 470.815C130.022 469.501 128.679 468.652 127.204 468.421C127.412 467.72 127.829 467.097 128.409 466.649C129.852 465.534 131.852 465.859 132.868 467.373L136.602 472.936C136.605 472.94 136.608 472.944 136.61 472.948C136.613 472.953 136.616 472.957 136.619 472.961L140.301 478.446ZM142.71 477.358C142.568 477.216 142.438 477.057 142.323 476.885L141.716 475.981L144.918 473.507L145.867 474.92L142.71 477.358ZM140.574 459.157L173.254 507.843C173.538 508.265 173.441 508.862 173.038 509.173C172.635 509.484 172.077 509.394 171.793 508.971L143.857 467.353C143.857 467.353 143.856 467.353 143.856 467.352C143.856 467.352 143.856 467.352 143.855 467.351L139.112 460.286C138.829 459.863 138.926 459.266 139.329 458.955C139.524 458.804 139.761 458.742 139.996 458.78C140.231 458.818 140.436 458.952 140.574 459.157Z" fill="black"/>
<path d="M580.5 311.928C579.571 311.924 578.672 312.281 577.969 312.934C577.602 313.274 577.312 313.674 577.108 314.11L571.949 314.089C571.033 312.417 569.262 311.297 567.157 311.288L567.157 311.288C565.148 311.28 563.23 312.282 562.027 313.969C561.817 314.263 561.733 314.622 561.794 314.962C561.855 315.302 562.055 315.593 562.349 315.766C563.347 316.356 563.916 317.459 563.832 318.647L562.892 331.95C562.781 333.512 563.287 334.982 564.316 336.091C565.345 337.199 566.773 337.813 568.339 337.819C570.348 337.828 572.265 336.826 573.468 335.139C573.678 334.845 573.763 334.486 573.702 334.146C573.667 333.954 573.588 333.777 573.473 333.628L575.488 333.637L572.645 373.874C572.579 374.801 572.879 375.673 573.49 376.331C574.1 376.989 574.948 377.353 575.877 377.357C576.836 377.361 577.732 376.975 578.407 376.35C579.081 375.724 579.532 374.858 579.599 373.902L583.732 315.411C583.797 314.484 583.497 313.612 582.887 312.954C582.276 312.296 581.429 311.932 580.5 311.928ZM572.604 317.158C572.617 316.983 572.621 316.811 572.618 316.64L576.687 316.657L576.567 318.354L572.521 318.337L572.604 317.158ZM572.221 322.582L572.341 320.885L576.387 320.902L576.267 322.599L572.221 322.582ZM576.088 325.147L575.968 326.844L571.921 326.827L572.041 325.13L576.088 325.147ZM569.11 330.451C569.053 331.266 569.168 332.058 569.433 332.784C569.45 332.838 569.47 332.891 569.494 332.942C569.742 333.561 570.102 334.128 570.559 334.615C569.963 335.039 569.252 335.275 568.519 335.272C567.636 335.268 566.83 334.922 566.249 334.296C565.669 333.671 565.384 332.842 565.446 331.961L566.386 318.657C566.497 317.078 565.959 315.583 564.937 314.493C565.532 314.069 566.244 313.833 566.977 313.836C568.8 313.843 570.179 315.329 570.05 317.147L569.578 323.831C569.577 323.836 569.577 323.841 569.577 323.846C569.576 323.851 569.576 323.856 569.576 323.861L569.11 330.451ZM571.679 331.073C571.655 330.873 571.65 330.669 571.664 330.462L571.741 329.375L575.788 329.392L575.668 331.089L571.679 331.073ZM581.178 315.4L577.045 373.892C577.009 374.399 576.566 374.811 576.057 374.809C575.548 374.807 575.163 374.392 575.199 373.884L578.731 323.884C578.732 323.884 578.732 323.883 578.732 323.883C578.732 323.883 578.732 323.882 578.732 323.882L579.331 315.393C579.367 314.886 579.81 314.474 580.32 314.476C580.566 314.477 580.791 314.574 580.953 314.748C581.116 314.923 581.195 315.155 581.178 315.4Z" fill="black"/>
<path d="M647.709 383.371C648.606 383.13 649.566 383.245 650.413 383.696C650.854 383.932 651.237 384.244 651.546 384.613L656.528 383.273C656.986 381.424 658.412 379.888 660.445 379.341L660.445 379.341C662.385 378.82 664.495 379.298 666.089 380.621C666.367 380.851 666.541 381.177 666.569 381.521C666.597 381.866 666.477 382.198 666.238 382.441C665.423 383.266 665.156 384.478 665.541 385.604L669.851 398.226C670.357 399.707 670.244 401.258 669.533 402.592C668.822 403.927 667.598 404.886 666.086 405.292C664.146 405.814 662.037 405.336 660.442 404.013C660.164 403.782 659.99 403.456 659.962 403.112C659.946 402.917 659.977 402.726 660.051 402.553L658.105 403.076L671.142 441.249C671.442 442.128 671.375 443.048 670.953 443.841C670.531 444.633 669.805 445.202 668.908 445.443C667.982 445.692 667.016 445.548 666.205 445.116C665.393 444.683 664.736 443.962 664.426 443.055L645.475 387.564C645.175 386.685 645.242 385.765 645.664 384.973C646.086 384.181 646.812 383.612 647.709 383.371ZM656.679 386.408C656.623 386.243 656.574 386.077 656.534 385.911L652.604 386.968L653.154 388.578L657.061 387.527L656.679 386.408ZM658.437 391.554L657.887 389.944L653.979 390.995L654.529 392.605L658.437 391.554ZM655.354 395.022L655.904 396.632L659.812 395.581L659.262 393.971L655.354 395.022ZM663.456 398.366C663.72 399.139 663.811 399.934 663.74 400.704C663.738 400.761 663.732 400.817 663.722 400.872C663.64 401.534 663.437 402.175 663.12 402.762C663.804 403.02 664.553 403.066 665.261 402.875C666.113 402.646 666.804 402.105 667.205 401.352C667.606 400.599 667.67 399.724 667.385 398.888L663.075 386.267C662.563 384.769 662.701 383.186 663.41 381.872C662.726 381.614 661.978 381.568 661.27 381.758C659.51 382.231 658.557 384.02 659.146 385.745L661.311 392.085C661.313 392.09 661.315 392.095 661.316 392.1C661.318 392.104 661.32 392.109 661.321 392.114L663.456 398.366ZM661.132 399.624C661.104 399.425 661.057 399.226 660.99 399.029L660.638 397.999L656.73 399.049L657.28 400.659L661.132 399.624ZM647.941 386.901L666.892 442.392C667.057 442.873 667.591 443.158 668.082 443.026C668.574 442.893 668.84 442.394 668.675 441.912L652.476 394.478C652.475 394.477 652.475 394.477 652.475 394.476C652.475 394.476 652.475 394.476 652.475 394.475L649.724 386.422C649.56 385.941 649.026 385.656 648.534 385.788C648.296 385.852 648.104 386.003 647.992 386.213C647.88 386.424 647.862 386.668 647.941 386.901Z" fill="black"/>
<path d="M97.4624 239.383C98.3595 239.142 99.3195 239.257 100.166 239.708C100.608 239.944 100.991 240.256 101.299 240.625L106.282 239.285C106.74 237.436 108.165 235.9 110.198 235.353L110.198 235.353C112.138 234.832 114.248 235.31 115.843 236.633C116.121 236.863 116.294 237.189 116.322 237.533C116.35 237.878 116.231 238.21 115.991 238.453C115.177 239.278 114.91 240.49 115.294 241.616L119.605 254.238C120.111 255.719 119.998 257.27 119.286 258.604C118.575 259.939 117.351 260.898 115.84 261.304C113.899 261.826 111.79 261.348 110.195 260.025C109.917 259.794 109.744 259.468 109.715 259.124C109.699 258.929 109.731 258.738 109.804 258.565L107.859 259.088L120.895 297.261C121.195 298.14 121.128 299.06 120.706 299.853C120.284 300.645 119.558 301.214 118.661 301.455C117.735 301.704 116.77 301.56 115.958 301.128C115.147 300.695 114.489 299.974 114.179 299.067L95.2281 243.576C94.928 242.697 94.995 241.777 95.417 240.985C95.8392 240.193 96.5655 239.624 97.4624 239.383ZM106.433 242.42C106.376 242.255 106.328 242.089 106.287 241.923L102.357 242.98L102.907 244.59L106.815 243.539L106.433 242.42ZM108.19 247.566L107.64 245.956L103.732 247.007L104.282 248.617L108.19 247.566ZM105.108 251.034L105.658 252.644L109.566 251.594L109.016 249.983L105.108 251.034ZM113.21 254.378C113.474 255.151 113.565 255.946 113.494 256.716C113.492 256.773 113.486 256.829 113.475 256.884C113.394 257.546 113.191 258.187 112.874 258.774C113.558 259.032 114.306 259.078 115.014 258.887C115.867 258.658 116.557 258.117 116.959 257.364C117.36 256.611 117.424 255.736 117.138 254.901L112.828 242.279C112.316 240.781 112.454 239.198 113.164 237.884C112.48 237.626 111.731 237.58 111.024 237.77C109.263 238.243 108.31 240.032 108.899 241.757L111.065 248.097C111.066 248.102 111.068 248.107 111.07 248.112C111.071 248.116 111.073 248.121 111.075 248.126L113.21 254.378ZM110.885 255.636C110.857 255.437 110.81 255.238 110.743 255.041L110.391 254.011L106.483 255.061L107.033 256.671L110.885 255.636ZM97.6948 242.913L116.646 298.404C116.81 298.885 117.344 299.17 117.836 299.038C118.327 298.906 118.593 298.406 118.429 297.924L102.229 250.49C102.229 250.489 102.229 250.489 102.229 250.488C102.229 250.488 102.228 250.488 102.228 250.487L99.4778 242.434C99.3134 241.953 98.7799 241.668 98.2879 241.8C98.0498 241.864 97.857 242.015 97.745 242.225C97.6329 242.436 97.6152 242.68 97.6948 242.913Z" fill="black"/>
<path d="M423.462 441.383C424.36 441.142 425.32 441.257 426.166 441.708C426.608 441.944 426.991 442.256 427.299 442.625L432.282 441.285C432.74 439.436 434.165 437.9 436.198 437.353L436.198 437.353C438.138 436.832 440.248 437.31 441.843 438.633C442.121 438.863 442.294 439.189 442.322 439.533C442.35 439.878 442.231 440.21 441.991 440.453C441.177 441.278 440.91 442.49 441.295 443.616L445.605 456.238C446.111 457.719 445.998 459.27 445.286 460.604C444.575 461.939 443.351 462.898 441.84 463.304C439.9 463.826 437.79 463.348 436.195 462.025C435.917 461.794 435.744 461.468 435.715 461.124C435.699 460.929 435.731 460.738 435.805 460.565L433.859 461.088L446.895 499.261C447.196 500.14 447.129 501.06 446.706 501.853C446.284 502.645 445.558 503.214 444.661 503.455C443.735 503.704 442.77 503.56 441.958 503.128C441.147 502.695 440.489 501.974 440.179 501.067L421.228 445.576C420.928 444.697 420.995 443.777 421.417 442.985C421.839 442.193 422.566 441.624 423.462 441.383ZM432.433 444.42C432.376 444.255 432.328 444.089 432.287 443.923L428.357 444.98L428.907 446.59L432.815 445.539L432.433 444.42ZM434.19 449.566L433.64 447.956L429.733 449.007L430.282 450.617L434.19 449.566ZM431.108 453.034L431.658 454.644L435.566 453.594L435.016 451.983L431.108 453.034ZM439.21 456.378C439.474 457.151 439.565 457.946 439.494 458.716C439.492 458.773 439.486 458.829 439.476 458.884C439.394 459.546 439.191 460.187 438.874 460.774C439.558 461.032 440.306 461.078 441.014 460.887C441.867 460.658 442.557 460.117 442.959 459.364C443.36 458.611 443.424 457.736 443.138 456.901L438.828 444.279C438.316 442.781 438.454 441.198 439.164 439.884C438.48 439.626 437.731 439.58 437.024 439.77C435.263 440.243 434.31 442.032 434.899 443.757L437.065 450.097C437.066 450.102 437.068 450.107 437.07 450.112C437.071 450.116 437.073 450.121 437.075 450.126L439.21 456.378ZM436.886 457.636C436.858 457.437 436.81 457.238 436.743 457.041L436.391 456.011L432.483 457.061L433.033 458.671L436.886 457.636ZM423.695 444.913L442.646 500.404C442.81 500.885 443.344 501.17 443.836 501.038C444.327 500.906 444.593 500.406 444.429 499.924L428.229 452.49C428.229 452.489 428.229 452.489 428.229 452.488C428.229 452.488 428.228 452.488 428.228 452.487L425.478 444.434C425.313 443.953 424.78 443.668 424.288 443.8C424.05 443.864 423.857 444.015 423.745 444.225C423.633 444.436 423.615 444.68 423.695 444.913Z" fill="black"/>
<path d="M397.893 288.134C398.702 287.678 399.661 287.553 400.593 287.781C401.079 287.899 401.527 288.107 401.917 288.389L406.414 285.858C406.4 283.953 407.402 282.112 409.236 281.08L409.236 281.08C410.987 280.095 413.15 280.036 415.022 280.924C415.349 281.079 415.597 281.351 415.71 281.678C415.822 282.005 415.788 282.356 415.616 282.651C415.031 283.651 415.072 284.892 415.723 285.888L423.021 297.052C423.877 298.362 424.151 299.892 423.792 301.362C423.433 302.831 422.484 304.063 421.12 304.83C419.369 305.815 417.207 305.874 415.334 304.986C415.008 304.831 414.759 304.559 414.647 304.232C414.583 304.047 414.566 303.854 414.595 303.668L412.839 304.656L434.91 338.42C435.418 339.198 435.581 340.106 435.368 340.978C435.155 341.849 434.592 342.58 433.782 343.036C432.947 343.506 431.976 343.606 431.082 343.387C430.189 343.169 429.374 342.633 428.849 341.83L396.765 292.75C396.257 291.972 396.094 291.064 396.307 290.192C396.52 289.32 397.083 288.589 397.893 288.134ZM407.335 288.858C407.24 288.712 407.152 288.563 407.071 288.413L403.525 290.408L404.456 291.832L407.983 289.848L407.335 288.858ZM410.311 293.41L409.38 291.986L405.853 293.97L406.784 295.394L410.311 293.41ZM408.182 297.532L409.113 298.957L412.639 296.972L411.709 295.548L408.182 297.532ZM416.859 298.769C417.306 299.453 417.591 300.201 417.712 300.964C417.724 301.02 417.732 301.076 417.736 301.132C417.821 301.794 417.782 302.464 417.621 303.111C418.347 303.192 419.083 303.052 419.722 302.692C420.492 302.259 421.027 301.564 421.23 300.735C421.432 299.907 421.278 299.043 420.795 298.304L413.497 287.141C412.631 285.815 412.373 284.248 412.736 282.799C412.009 282.718 411.273 282.858 410.634 283.218C409.045 284.111 408.564 286.08 409.561 287.606L413.227 293.214C413.23 293.218 413.233 293.222 413.236 293.227C413.239 293.231 413.241 293.235 413.244 293.24L416.859 298.769ZM414.918 300.563C414.842 300.377 414.746 300.195 414.633 300.022L414.037 299.11L410.51 301.095L411.441 302.519L414.918 300.563ZM398.991 291.497L431.075 340.578C431.354 341.004 431.941 341.147 432.385 340.898C432.828 340.648 432.963 340.099 432.684 339.672L405.258 297.717C405.258 297.717 405.257 297.716 405.257 297.716C405.257 297.715 405.257 297.715 405.256 297.715L400.6 290.592C400.322 290.166 399.734 290.022 399.29 290.272C399.075 290.393 398.926 290.587 398.869 290.818C398.813 291.05 398.856 291.291 398.991 291.497Z" fill="black"/>
<path d="M319.686 151.153C318.944 150.594 318.01 150.342 317.056 150.444C316.559 150.498 316.087 150.644 315.663 150.871L311.542 147.766C311.809 145.879 311.061 143.922 309.38 142.655L309.379 142.655C307.775 141.446 305.639 141.101 303.666 141.732C303.321 141.843 303.039 142.08 302.884 142.389C302.729 142.697 302.716 143.051 302.848 143.365C303.295 144.435 303.089 145.659 302.311 146.56L293.596 156.655C292.573 157.84 292.099 159.321 292.259 160.825C292.42 162.328 293.197 163.675 294.447 164.617C296.052 165.826 298.187 166.171 300.161 165.54C300.505 165.43 300.788 165.193 300.943 164.884C301.03 164.709 301.072 164.52 301.069 164.332L302.678 165.545L276.319 196.079C275.712 196.782 275.43 197.66 275.526 198.553C275.621 199.445 276.082 200.244 276.824 200.803C277.59 201.38 278.539 201.608 279.453 201.51C280.368 201.413 281.247 200.989 281.874 200.264L320.191 155.878C320.798 155.175 321.08 154.296 320.984 153.404C320.889 152.511 320.428 151.712 319.686 151.153ZM310.231 150.617C310.345 150.485 310.452 150.349 310.551 150.211L313.802 152.66L312.69 153.948L309.458 151.513L310.231 150.617ZM306.677 154.734L307.789 153.446L311.021 155.881L309.909 157.169L306.677 154.734ZM308.24 159.102L307.128 160.39L303.896 157.955L305.008 156.667L308.24 159.102ZM299.475 159.176C298.942 159.794 298.56 160.498 298.338 161.238C298.319 161.291 298.303 161.346 298.292 161.401C298.121 162.046 298.069 162.716 298.144 163.378C297.413 163.362 296.702 163.125 296.116 162.684C295.411 162.152 294.973 161.393 294.882 160.544C294.791 159.696 295.059 158.861 295.636 158.192L304.351 148.097C305.386 146.898 305.85 145.378 305.683 143.894C306.414 143.91 307.125 144.147 307.71 144.589C309.166 145.685 309.382 147.7 308.191 149.08L303.812 154.152C303.809 154.156 303.806 154.16 303.802 154.163C303.799 154.167 303.796 154.171 303.792 154.175L299.475 159.176ZM301.161 161.211C301.261 161.037 301.38 160.87 301.515 160.713L302.227 159.889L305.459 162.324L304.347 163.612L301.161 161.211ZM318.151 154.341L279.833 198.727C279.501 199.112 278.9 199.176 278.493 198.87C278.086 198.564 278.026 198.001 278.359 197.616L311.113 159.673C311.114 159.673 311.114 159.673 311.114 159.672C311.115 159.672 311.115 159.672 311.115 159.671L316.676 153.23C317.009 152.845 317.61 152.78 318.017 153.086C318.214 153.235 318.336 153.447 318.361 153.684C318.387 153.921 318.312 154.154 318.151 154.341Z" fill="black"/>
<path d="M447.862 223.739C447.12 224.298 446.186 224.55 445.232 224.448C444.735 224.394 444.263 224.248 443.839 224.021L439.718 227.126C439.985 229.013 439.237 230.97 437.556 232.237L437.555 232.237C435.951 233.446 433.815 233.791 431.842 233.16C431.497 233.049 431.215 232.812 431.06 232.503C430.905 232.195 430.892 231.841 431.024 231.527C431.471 230.457 431.265 229.233 430.487 228.332L421.772 218.237C420.749 217.052 420.275 215.571 420.435 214.067C420.596 212.563 421.373 211.217 422.623 210.275C424.228 209.066 426.363 208.721 428.337 209.352C428.681 209.462 428.964 209.699 429.119 210.008C429.206 210.183 429.248 210.372 429.245 210.56L430.854 209.347L404.495 178.813C403.888 178.11 403.606 177.232 403.702 176.339C403.797 175.447 404.258 174.648 405 174.089C405.766 173.512 406.715 173.284 407.629 173.382C408.544 173.479 409.423 173.903 410.05 174.628L448.367 219.014C448.974 219.717 449.256 220.596 449.16 221.488C449.065 222.381 448.604 223.18 447.862 223.739ZM438.407 224.275C438.521 224.407 438.628 224.543 438.727 224.681L441.978 222.232L440.866 220.944L437.634 223.379L438.407 224.275ZM434.853 220.158L435.965 221.446L439.197 219.011L438.085 217.723L434.853 220.158ZM436.416 215.79L435.304 214.502L432.072 216.937L433.184 218.225L436.416 215.79ZM427.652 215.716C427.118 215.098 426.736 214.394 426.514 213.654C426.495 213.601 426.479 213.546 426.468 213.491C426.297 212.846 426.245 212.176 426.32 211.514C425.589 211.53 424.878 211.767 424.293 212.208C423.587 212.74 423.149 213.499 423.058 214.348C422.967 215.196 423.235 216.031 423.812 216.7L432.527 226.795C433.562 227.994 434.026 229.514 433.859 230.998C434.59 230.982 435.301 230.745 435.886 230.303C437.342 229.207 437.558 227.192 436.367 225.812L431.988 220.74C431.985 220.736 431.982 220.732 431.978 220.729C431.975 220.725 431.972 220.721 431.968 220.717L427.652 215.716ZM429.337 213.681C429.437 213.855 429.556 214.022 429.691 214.179L430.403 215.003L433.635 212.568L432.523 211.28L429.337 213.681ZM446.327 220.551L408.01 176.165C407.677 175.78 407.076 175.716 406.669 176.022C406.262 176.328 406.202 176.891 406.535 177.276L439.289 215.219C439.29 215.219 439.29 215.219 439.29 215.22C439.291 215.22 439.291 215.22 439.291 215.221L444.852 221.662C445.185 222.047 445.786 222.112 446.193 221.806C446.39 221.657 446.512 221.445 446.537 221.208C446.563 220.971 446.488 220.738 446.327 220.551Z" fill="black"/>
<path d="M104.6 149.251C104.817 147.835 105.482 146.535 106.493 145.382C107.525 144.206 108.919 143.185 110.56 142.361C111.461 141.909 112.174 141.569 112.758 141.292C113.863 140.766 114.459 140.486 114.884 140.105C115.398 139.648 115.843 138.905 116.813 137.3C117.113 136.8 117.442 136.254 117.474 136.201C118.317 134.818 119.285 133.639 120.336 132.732C121.399 131.816 122.542 131.171 123.724 130.863C125.406 130.426 126.754 130.653 127.892 131.262C128.979 131.841 129.849 132.758 130.643 133.765C131.789 135.217 132.717 136.811 133.423 138.548C134.099 140.21 134.574 142 134.851 143.919C137.215 145.738 139.089 147.6 140.574 149.398C142.109 151.253 143.235 153.03 144.062 154.613C144.972 156.345 145.437 157.898 145.374 158.973C145.338 159.587 145.139 160.098 144.765 160.473C144.368 160.87 143.836 161.068 143.166 161.022C142.227 160.958 140.894 160.362 139.134 159.065C138.646 158.706 138.157 158.267 137.945 158.077L137.883 158.024L137.754 157.912C134.578 155.099 131.452 152.33 128.2 155.19C126.932 156.869 126.676 158.214 127.045 159.534C127.45 160.978 128.589 162.484 129.988 164.319L129.994 164.326C130.189 164.58 130.843 165.437 131.253 166.121C132.39 168.017 132.844 169.425 132.798 170.377C132.763 171.039 132.511 171.544 132.075 171.898C131.666 172.233 131.138 172.383 130.527 172.356C129.45 172.311 127.964 171.683 126.353 170.547C125.024 169.608 123.412 168.227 121.584 166.4C119.973 164.788 118.193 162.825 116.292 160.51C114.768 159.924 113.298 159.277 111.909 158.536C110.474 157.769 109.121 156.9 107.882 155.888C106.848 155.04 105.924 154.243 105.305 153.241C104.652 152.18 104.345 150.935 104.6 149.251ZM107.556 146.24C106.763 147.145 106.243 148.154 106.079 149.243C105.881 150.553 106.117 151.518 106.616 152.328C107.15 153.192 107.99 153.918 108.94 154.692C110.106 155.644 111.393 156.472 112.773 157.208C114.154 157.947 115.627 158.587 117.163 159.175C117.258 159.212 117.344 159.272 117.412 159.352C119.324 161.69 121.115 163.666 122.735 165.283C124.501 167.052 126.062 168.386 127.352 169.296C128.768 170.295 130.004 170.844 130.826 170.879C131.032 170.888 131.176 170.869 131.238 170.817C131.277 170.786 131.301 170.692 131.312 170.524C131.348 169.821 130.944 168.663 129.944 166.999C129.574 166.381 128.943 165.555 128.756 165.31L128.75 165.304C127.274 163.372 126.077 161.785 125.606 160.108C125.107 158.323 125.434 156.534 127.109 154.348L127.111 154.351C127.144 154.309 127.182 154.267 127.224 154.229C131.578 150.296 135.187 153.493 138.853 156.741L138.979 156.855L138.981 156.857L139.045 156.913C139.235 157.082 139.672 157.475 140.155 157.83C141.713 158.98 142.81 159.501 143.505 159.549C143.668 159.561 143.762 159.55 143.791 159.519C143.847 159.465 143.877 159.325 143.889 159.116C143.935 158.282 143.522 156.97 142.713 155.435C141.91 153.907 140.831 152.197 139.363 150.423C137.89 148.643 136.024 146.794 133.646 144.988C133.517 144.897 133.428 144.755 133.405 144.577C133.15 142.666 132.689 140.896 132.025 139.259C131.361 137.626 130.492 136.129 129.415 134.77C128.705 133.873 127.943 133.061 127.031 132.576C126.175 132.118 125.161 131.948 123.893 132.281C122.974 132.518 122.072 133.032 121.224 133.764C120.321 134.546 119.476 135.578 118.729 136.803C118.273 137.556 118.163 137.734 118.068 137.892C117.003 139.66 116.509 140.476 115.795 141.116C115.166 141.676 114.489 141.996 113.231 142.594C112.657 142.867 111.952 143.2 111.065 143.647C109.634 144.368 108.432 145.244 107.556 146.24Z" fill="black"/>
<path d="M612.648 250.897C614.077 250.809 615.489 251.184 616.829 251.928C618.198 252.688 619.49 253.835 620.643 255.265C621.275 256.05 621.758 256.674 622.153 257.187C622.9 258.155 623.3 258.679 623.763 259.013C624.317 259.419 625.138 259.697 626.912 260.305C627.464 260.492 628.067 260.698 628.126 260.719C629.656 261.25 631.013 261.946 632.122 262.782C633.242 263.626 634.115 264.608 634.666 265.698C635.448 267.249 635.512 268.615 635.157 269.856C634.822 271.04 634.109 272.085 633.293 273.074C632.117 274.501 630.755 275.745 629.207 276.803C627.726 277.815 626.076 278.658 624.259 279.335C622.982 282.031 621.558 284.256 620.115 286.088C618.627 287.981 617.129 289.457 615.757 290.601C614.256 291.856 612.837 292.639 611.773 292.805C611.165 292.9 610.623 292.813 610.177 292.527C609.706 292.223 609.4 291.745 609.303 291.08C609.167 290.149 609.467 288.72 610.362 286.726C610.61 286.173 610.936 285.602 611.076 285.354L611.116 285.282L611.197 285.133C613.275 281.434 615.319 277.792 611.836 275.219C609.927 274.335 608.558 274.37 607.347 275.009C606.021 275.711 604.789 277.142 603.292 278.898L603.287 278.906C603.08 279.15 602.381 279.971 601.799 280.516C600.187 282.029 598.906 282.77 597.967 282.926C597.312 283.032 596.764 282.893 596.327 282.542C595.913 282.213 595.654 281.728 595.551 281.126C595.367 280.064 595.667 278.478 596.436 276.664C597.073 275.166 598.081 273.298 599.48 271.125C600.715 269.209 602.257 267.055 604.117 264.707C604.368 263.093 604.689 261.519 605.119 260.006C605.565 258.44 606.129 256.934 606.856 255.509C607.465 254.319 608.049 253.248 608.897 252.43C609.796 251.568 610.947 251.004 612.648 250.897ZM616.215 253.149C615.163 252.566 614.067 252.27 612.968 252.341C611.646 252.425 610.753 252.859 610.067 253.519C609.335 254.223 608.803 255.198 608.248 256.29C607.564 257.631 607.027 259.064 606.6 260.568C606.17 262.075 605.856 263.65 605.606 265.276C605.59 265.376 605.55 265.473 605.486 265.556C603.605 267.919 602.053 270.088 600.816 272.014C599.461 274.114 598.487 275.922 597.87 277.375C597.194 278.97 596.918 280.294 597.058 281.105C597.093 281.309 597.142 281.445 597.206 281.495C597.244 281.527 597.342 281.53 597.508 281.505C598.203 281.392 599.249 280.752 600.664 279.423C601.19 278.93 601.863 278.139 602.063 277.904L602.068 277.897C603.643 276.045 604.942 274.54 606.48 273.725C608.12 272.86 609.938 272.8 612.428 273.975L612.426 273.977C612.474 274.001 612.524 274.029 612.569 274.062C617.334 277.485 614.973 281.69 612.574 285.959L612.49 286.106L612.488 286.109L612.447 286.183C612.322 286.404 612.031 286.915 611.786 287.463C610.991 289.228 610.714 290.41 610.815 291.1C610.837 291.262 610.868 291.351 610.904 291.373C610.969 291.416 611.112 291.416 611.319 291.384C612.144 291.253 613.338 290.571 614.667 289.455C615.991 288.347 617.434 286.931 618.857 285.122C620.285 283.305 621.697 281.09 622.96 278.384C623.022 278.239 623.142 278.121 623.311 278.061C625.124 277.408 626.756 276.582 628.216 275.587C629.671 274.593 630.95 273.426 632.051 272.086C632.777 271.203 633.411 270.286 633.691 269.292C633.957 268.359 633.909 267.332 633.316 266.163C632.89 265.315 632.196 264.542 631.301 263.868C630.346 263.151 629.158 262.544 627.803 262.072C626.971 261.786 626.773 261.717 626.599 261.657C624.645 260.99 623.744 260.68 622.967 260.118C622.287 259.621 621.83 259.027 620.98 257.924C620.592 257.421 620.117 256.802 619.493 256.03C618.485 254.784 617.375 253.795 616.215 253.149Z" fill="black"/>
<path d="M398.237 395.793C399.344 394.884 400.707 394.36 402.229 394.177C403.783 393.99 405.503 394.162 407.275 394.643C408.248 394.908 409.005 395.131 409.625 395.315C410.799 395.661 411.429 395.851 412 395.851C412.687 395.854 413.515 395.598 415.309 395.05C415.865 394.878 416.475 394.692 416.535 394.674C418.085 394.207 419.593 393.975 420.982 394.002C422.384 394.029 423.666 394.312 424.752 394.872C426.295 395.67 427.148 396.739 427.588 397.952C428.011 399.108 428.046 400.373 427.965 401.652C427.849 403.498 427.475 405.304 426.841 407.069C426.235 408.758 425.393 410.407 424.318 412.021C424.864 414.954 425.016 417.591 424.921 419.921C424.826 422.327 424.477 424.401 424.036 426.132C423.557 428.029 422.867 429.495 422.102 430.254C421.665 430.688 421.175 430.934 420.647 430.965C420.087 430.995 419.558 430.787 419.089 430.305C418.434 429.631 417.839 428.297 417.395 426.156C417.271 425.563 417.201 424.91 417.169 424.627L417.159 424.546L417.137 424.377C416.651 420.162 416.172 416.013 411.842 415.971C409.777 416.375 408.688 417.206 408.082 418.434C407.42 419.78 407.261 421.661 407.078 423.962V423.971C407.053 424.29 406.969 425.365 406.817 426.147C406.398 428.318 405.795 429.67 405.126 430.347C404.657 430.817 404.132 431.025 403.572 430.998C403.043 430.974 402.55 430.733 402.113 430.305C401.342 429.553 400.654 428.092 400.214 426.172C399.851 424.585 399.573 422.48 399.432 419.9C399.308 417.624 399.294 414.975 399.425 411.982C398.681 410.528 398.019 409.065 397.48 407.586C396.923 406.057 396.497 404.506 396.25 402.926C396.046 401.604 395.891 400.394 396.099 399.235C396.321 398.009 396.923 396.877 398.237 395.793ZM402.448 395.526C401.253 395.67 400.193 396.073 399.344 396.775C398.322 397.618 397.853 398.494 397.684 399.43C397.504 400.43 397.645 401.532 397.836 402.742C398.068 404.229 398.473 405.705 399.009 407.174C399.545 408.646 400.214 410.106 400.964 411.57C401.01 411.66 401.035 411.762 401.031 411.868C400.894 414.884 400.908 417.552 401.035 419.837C401.169 422.333 401.44 424.368 401.793 425.907C402.18 427.596 402.733 428.83 403.322 429.405C403.47 429.55 403.59 429.631 403.671 429.634C403.72 429.637 403.801 429.583 403.921 429.465C404.418 428.965 404.89 427.833 405.256 425.928C405.394 425.22 405.475 424.184 405.499 423.877V423.868C405.69 421.445 405.859 419.464 406.627 417.901C407.448 416.239 408.885 415.125 411.591 414.616V414.619C411.644 414.61 411.701 414.604 411.757 414.604C417.624 414.583 418.177 419.373 418.737 424.239L418.755 424.407V424.41L418.765 424.495C418.793 424.747 418.857 425.332 418.98 425.919C419.371 427.815 419.84 428.935 420.326 429.435C420.439 429.553 420.516 429.607 420.559 429.604C420.636 429.601 420.753 429.516 420.9 429.369C421.492 428.779 422.06 427.526 422.483 425.843C422.905 424.169 423.244 422.176 423.335 419.876C423.427 417.567 423.272 414.945 422.708 412.012C422.673 411.859 422.701 411.693 422.803 411.546C423.888 409.953 424.727 408.327 425.326 406.665C425.921 405.006 426.274 403.311 426.38 401.58C426.45 400.439 426.425 399.325 426.069 398.356C425.738 397.443 425.097 396.64 423.931 396.04C423.089 395.604 422.074 395.384 420.953 395.363C419.759 395.342 418.441 395.547 417.067 395.959C416.225 396.215 416.024 396.275 415.848 396.329C413.875 396.935 412.962 397.212 412.004 397.212C411.162 397.209 410.443 396.995 409.107 396.6C408.498 396.42 407.751 396.197 406.792 395.938C405.246 395.52 403.766 395.369 402.448 395.526Z" fill="black"/>
<path d="M485.963 314.594C485.627 313.201 485.751 311.746 486.25 310.296C486.76 308.816 487.665 307.344 488.871 305.96C489.534 305.2 490.065 304.616 490.501 304.138C491.324 303.233 491.77 302.749 492.019 302.235C492.322 301.618 492.453 300.761 492.742 298.909C492.831 298.333 492.929 297.703 492.939 297.641C493.196 296.043 493.645 294.584 494.275 293.347C494.911 292.097 495.726 291.067 496.703 290.334C498.094 289.294 499.428 288.993 500.712 289.126C501.937 289.25 503.09 289.77 504.206 290.402C505.816 291.312 507.278 292.436 508.589 293.776C509.844 295.059 510.961 296.536 511.944 298.207C514.821 298.995 517.26 300.01 519.315 301.112C521.438 302.248 523.153 303.467 524.518 304.618C526.016 305.877 527.034 307.138 527.383 308.157C527.582 308.74 527.591 309.288 527.387 309.777C527.17 310.294 526.752 310.679 526.114 310.89C525.221 311.186 523.762 311.14 521.642 310.605C521.054 310.457 520.436 310.236 520.167 310.141L520.089 310.115L519.928 310.06C515.924 308.658 511.982 307.279 510.054 311.157C509.516 313.191 509.789 314.533 510.63 315.615C511.552 316.798 513.175 317.762 515.165 318.93L515.173 318.934C515.45 319.096 516.38 319.641 517.018 320.119C518.788 321.443 519.742 322.575 520.059 323.473C520.277 324.1 520.235 324.663 519.966 325.155C519.714 325.62 519.282 325.959 518.707 326.165C517.693 326.531 516.079 326.512 514.159 326.07C512.573 325.705 510.558 325.037 508.174 324.038C506.073 323.155 503.683 322.012 501.047 320.589C499.414 320.623 497.808 320.581 496.243 320.421C494.624 320.255 493.043 319.962 491.513 319.494C490.235 319.101 489.078 318.712 488.126 318.02C487.12 317.285 486.364 316.249 485.963 314.594ZM487.559 310.688C487.168 311.826 487.068 312.956 487.328 314.026C487.641 315.314 488.225 316.118 488.994 316.678C489.815 317.276 490.868 317.63 492.04 317.987C493.479 318.427 494.983 318.706 496.539 318.865C498.098 319.026 499.703 319.06 501.348 319.024C501.449 319.022 501.552 319.044 501.645 319.093C504.299 320.533 506.706 321.685 508.817 322.568C511.121 323.536 513.071 324.18 514.609 324.534C516.298 324.923 517.65 324.964 518.424 324.685C518.619 324.615 518.744 324.543 518.782 324.471C518.806 324.428 518.793 324.331 518.74 324.172C518.507 323.507 517.694 322.588 516.139 321.427C515.563 320.995 514.666 320.47 514.401 320.314L514.392 320.31C512.295 319.081 510.586 318.064 509.515 316.691C508.378 315.228 508.003 313.448 508.726 310.791L508.729 310.792C508.744 310.741 508.763 310.688 508.787 310.637C511.328 305.349 515.88 306.941 520.502 308.56L520.661 308.618L520.664 308.619L520.744 308.647C520.984 308.732 521.538 308.929 522.12 309.075C523.997 309.55 525.209 309.617 525.871 309.398C526.026 309.348 526.108 309.302 526.124 309.262C526.155 309.191 526.13 309.05 526.062 308.852C525.789 308.062 524.91 307.005 523.58 305.89C522.258 304.779 520.613 303.605 518.583 302.519C516.545 301.429 514.118 300.425 511.233 299.652C511.08 299.617 510.943 299.519 510.855 299.363C509.896 297.692 508.799 296.228 507.565 294.964C506.332 293.704 504.961 292.647 503.449 291.797C502.453 291.235 501.44 290.772 500.412 290.669C499.447 290.569 498.444 290.795 497.396 291.583C496.636 292.15 495.995 292.967 495.487 293.966C494.947 295.032 494.556 296.307 494.328 297.723C494.191 298.593 494.157 298.8 494.129 298.982C493.813 301.021 493.664 301.963 493.245 302.826C492.875 303.582 492.369 304.136 491.432 305.165C491.003 305.635 490.477 306.21 489.826 306.959C488.774 308.168 487.993 309.434 487.559 310.688Z" fill="black"/>
<path d="M333.081 322.147C334.425 322.642 335.566 323.554 336.494 324.774C337.441 326.02 338.163 327.59 338.643 329.363C338.907 330.336 339.097 331.102 339.253 331.73C339.547 332.917 339.703 333.557 339.991 334.05C340.336 334.644 340.976 335.229 342.355 336.499C342.785 336.893 343.254 337.324 343.3 337.367C344.486 338.468 345.449 339.652 346.128 340.863C346.813 342.087 347.218 343.337 347.284 344.556C347.376 346.291 346.885 347.567 346.061 348.56C345.277 349.51 344.204 350.18 343.059 350.757C341.408 351.59 339.661 352.181 337.818 352.526C336.055 352.857 334.205 352.965 332.27 352.854C330.016 354.808 327.817 356.272 325.759 357.369C323.635 358.503 321.669 359.251 319.953 359.747C318.074 360.292 316.46 360.438 315.419 360.162C314.824 360.004 314.364 359.707 314.07 359.266C313.761 358.798 313.673 358.237 313.852 357.589C314.102 356.682 314.951 355.494 316.574 354.029C317.023 353.622 317.551 353.231 317.779 353.061L317.844 353.011L317.979 352.907C321.369 350.356 324.706 347.845 322.553 344.088C321.16 342.51 319.893 341.991 318.527 342.089C317.031 342.199 315.327 343.013 313.25 344.018L313.242 344.023C312.955 344.163 311.985 344.634 311.233 344.899C309.148 345.635 307.677 345.798 306.754 345.563C306.112 345.397 305.667 345.049 305.407 344.552C305.161 344.084 305.119 343.536 305.267 342.943C305.526 341.897 306.438 340.566 307.873 339.214C309.058 338.099 310.733 336.795 312.888 335.368C314.789 334.111 317.067 332.759 319.715 331.358C320.594 329.981 321.521 328.67 322.524 327.457C323.562 326.204 324.684 325.052 325.923 324.04C326.96 323.195 327.925 322.449 329.031 322.042C330.2 321.614 331.481 321.562 333.081 322.147ZM335.441 325.644C334.713 324.687 333.828 323.976 332.794 323.598C331.55 323.143 330.557 323.182 329.664 323.509C328.71 323.86 327.831 324.538 326.883 325.315C325.717 326.267 324.65 327.363 323.653 328.568C322.654 329.774 321.732 331.09 320.85 332.478C320.795 332.563 320.719 332.636 320.626 332.686C317.954 334.093 315.66 335.454 313.753 336.719C311.667 338.097 310.049 339.36 308.9 340.442C307.638 341.631 306.853 342.732 306.655 343.531C306.605 343.731 306.595 343.876 306.634 343.947C306.656 343.991 306.744 344.034 306.906 344.078C307.588 344.254 308.803 344.089 310.633 343.441C311.313 343.202 312.247 342.748 312.525 342.614L312.532 342.609C314.72 341.548 316.514 340.692 318.251 340.565C320.1 340.432 321.788 341.109 323.595 343.187L323.592 343.188C323.627 343.229 323.661 343.275 323.689 343.323C326.674 348.374 322.821 351.273 318.907 354.217L318.771 354.318L318.768 354.319L318.701 354.371C318.497 354.523 318.025 354.873 317.581 355.276C316.142 356.573 315.413 357.544 315.228 358.216C315.183 358.372 315.176 358.467 315.2 358.502C315.242 358.567 315.373 358.625 315.575 358.678C316.384 358.89 317.751 358.746 319.417 358.26C321.075 357.778 322.965 357.062 324.996 355.978C327.034 354.889 329.218 353.429 331.463 351.46C331.578 351.352 331.735 351.293 331.914 351.306C333.837 351.437 335.663 351.339 337.4 351.015C339.132 350.69 340.773 350.137 342.32 349.352C343.34 348.836 344.288 348.252 344.945 347.454C345.564 346.707 345.934 345.748 345.861 344.438C345.811 343.491 345.488 342.505 344.939 341.527C344.354 340.486 343.511 339.453 342.46 338.476C341.813 337.879 341.66 337.736 341.524 337.611C340.004 336.215 339.304 335.568 338.819 334.741C338.396 334.013 338.217 333.285 337.882 331.933C337.729 331.316 337.544 330.559 337.282 329.601C336.861 328.055 336.243 326.702 335.441 325.644Z" fill="black"/>
<path d="M349.505 444.837C350.849 445.332 351.99 446.243 352.918 447.464C353.865 448.71 354.587 450.28 355.067 452.053C355.33 453.026 355.521 453.792 355.676 454.42C355.971 455.607 356.126 456.247 356.415 456.739C356.76 457.334 357.399 457.919 358.779 459.189C359.209 459.582 359.678 460.014 359.724 460.056C360.91 461.158 361.873 462.342 362.552 463.553C363.237 464.777 363.642 466.026 363.707 467.246C363.799 468.981 363.309 470.257 362.485 471.25C361.701 472.2 360.628 472.869 359.483 473.447C357.832 474.28 356.085 474.871 354.242 475.216C352.478 475.547 350.629 475.655 348.693 475.544C346.44 477.498 344.241 478.962 342.183 480.058C340.059 481.193 338.093 481.941 336.377 482.436C334.498 482.982 332.884 483.128 331.843 482.852C331.248 482.694 330.787 482.396 330.494 481.956C330.185 481.488 330.097 480.926 330.275 480.279C330.526 479.372 331.375 478.184 332.998 476.719C333.447 476.312 333.975 475.921 334.203 475.751L334.268 475.7L334.403 475.597C337.793 473.046 341.13 470.535 338.976 466.777C337.584 465.2 336.317 464.681 334.951 464.779C333.455 464.888 331.751 465.703 329.674 466.708L329.666 466.713C329.378 466.853 328.408 467.323 327.656 467.588C325.572 468.324 324.101 468.488 323.178 468.253C322.536 468.086 322.091 467.739 321.831 467.242C321.585 466.773 321.543 466.226 321.691 465.633C321.95 464.587 322.862 463.255 324.297 461.904C325.482 460.789 327.157 459.484 329.311 458.058C331.213 456.801 333.491 455.449 336.139 454.048C337.018 452.671 337.945 451.36 338.948 450.147C339.986 448.893 341.108 447.741 342.347 446.729C343.383 445.885 344.349 445.139 345.454 444.732C346.624 444.304 347.905 444.251 349.505 444.837ZM351.865 448.334C351.136 447.377 350.252 446.666 349.217 446.288C347.973 445.833 346.981 445.871 346.087 446.199C345.134 446.549 344.255 447.228 343.307 448.004C342.141 448.957 341.073 450.053 340.077 451.258C339.077 452.464 338.156 453.78 337.273 455.168C337.219 455.253 337.143 455.326 337.05 455.376C334.378 456.783 332.084 458.144 330.177 459.409C328.091 460.787 326.472 462.05 325.323 463.132C324.062 464.32 323.277 465.422 323.079 466.22C323.029 466.421 323.019 466.566 323.058 466.637C323.08 466.681 323.168 466.724 323.329 466.768C324.012 466.943 325.227 466.778 327.057 466.131C327.737 465.891 328.671 465.438 328.948 465.304L328.956 465.299C331.143 464.238 332.938 463.382 334.674 463.254C336.523 463.122 338.211 463.799 340.019 465.876L340.016 465.878C340.051 465.919 340.084 465.965 340.113 466.013C343.098 471.064 339.245 473.963 335.331 476.907L335.194 477.007L335.192 477.009L335.124 477.061C334.92 477.213 334.449 477.563 334.005 477.966C332.566 479.263 331.837 480.233 331.651 480.906C331.607 481.062 331.6 481.157 331.624 481.191C331.665 481.257 331.797 481.315 331.999 481.368C332.807 481.58 334.175 481.436 335.841 480.95C337.498 480.468 339.389 479.752 341.42 478.668C343.458 477.579 345.642 476.119 347.887 474.15C348.002 474.042 348.159 473.983 348.338 473.996C350.261 474.127 352.087 474.028 353.824 473.705C355.556 473.38 357.197 472.826 358.744 472.042C359.764 471.526 360.712 470.941 361.369 470.144C361.988 469.397 362.357 468.437 362.284 467.128C362.235 466.181 361.912 465.194 361.363 464.217C360.777 463.176 359.934 462.142 358.884 461.166C358.237 460.568 358.084 460.426 357.948 460.301C356.428 458.905 355.727 458.257 355.243 457.431C354.819 456.703 354.64 455.974 354.305 454.623C354.153 454.006 353.967 453.249 353.706 452.291C353.285 450.745 352.667 449.392 351.865 448.334Z" fill="black"/>
<path d="M328.237 236.793C329.344 235.884 330.707 235.36 332.229 235.177C333.783 234.99 335.503 235.162 337.275 235.643C338.248 235.908 339.005 236.131 339.625 236.315C340.799 236.661 341.429 236.851 342 236.851C342.687 236.854 343.515 236.598 345.309 236.05C345.865 235.878 346.475 235.692 346.535 235.674C348.085 235.207 349.593 234.975 350.982 235.002C352.384 235.029 353.666 235.312 354.752 235.872C356.295 236.67 357.148 237.739 357.588 238.952C358.011 240.108 358.046 241.373 357.965 242.652C357.849 244.498 357.475 246.304 356.841 248.069C356.235 249.758 355.393 251.407 354.318 253.021C354.864 255.954 355.016 258.591 354.921 260.921C354.826 263.327 354.477 265.401 354.036 267.132C353.557 269.029 352.867 270.495 352.102 271.254C351.665 271.688 351.175 271.934 350.647 271.965C350.087 271.995 349.558 271.787 349.089 271.305C348.434 270.631 347.839 269.297 347.395 267.156C347.271 266.563 347.201 265.91 347.169 265.627L347.159 265.546L347.137 265.377C346.651 261.162 346.172 257.013 341.842 256.971C339.777 257.375 338.688 258.206 338.082 259.434C337.42 260.78 337.261 262.661 337.078 264.962V264.971C337.053 265.29 336.969 266.365 336.817 267.147C336.398 269.318 335.795 270.67 335.126 271.347C334.657 271.817 334.132 272.025 333.572 271.998C333.043 271.974 332.55 271.733 332.113 271.305C331.342 270.553 330.654 269.092 330.214 267.172C329.851 265.585 329.573 263.48 329.432 260.9C329.308 258.624 329.294 255.975 329.425 252.982C328.681 251.528 328.019 250.065 327.48 248.586C326.923 247.057 326.497 245.506 326.25 243.926C326.046 242.604 325.891 241.394 326.099 240.235C326.321 239.009 326.923 237.877 328.237 236.793ZM332.448 236.526C331.253 236.67 330.193 237.073 329.344 237.775C328.322 238.618 327.853 239.494 327.684 240.43C327.504 241.43 327.645 242.532 327.836 243.742C328.068 245.229 328.473 246.705 329.009 248.174C329.545 249.646 330.214 251.106 330.964 252.57C331.01 252.66 331.035 252.762 331.031 252.868C330.894 255.884 330.908 258.552 331.035 260.837C331.169 263.333 331.44 265.368 331.793 266.907C332.18 268.596 332.733 269.83 333.322 270.405C333.47 270.55 333.59 270.631 333.671 270.634C333.72 270.637 333.801 270.583 333.921 270.465C334.418 269.965 334.89 268.833 335.256 266.928C335.394 266.22 335.475 265.184 335.499 264.877V264.868C335.69 262.445 335.859 260.464 336.627 258.901C337.448 257.239 338.885 256.125 341.591 255.616V255.619C341.644 255.61 341.701 255.604 341.757 255.604C347.624 255.583 348.177 260.373 348.737 265.239L348.755 265.407V265.41L348.765 265.495C348.793 265.747 348.857 266.332 348.98 266.919C349.371 268.815 349.84 269.935 350.326 270.435C350.439 270.553 350.516 270.607 350.559 270.604C350.636 270.601 350.753 270.516 350.9 270.369C351.492 269.779 352.06 268.526 352.483 266.843C352.905 265.169 353.244 263.176 353.335 260.876C353.427 258.567 353.272 255.945 352.708 253.012C352.673 252.859 352.701 252.693 352.803 252.546C353.888 250.953 354.727 249.327 355.326 247.665C355.921 246.006 356.274 244.311 356.38 242.58C356.45 241.439 356.425 240.325 356.069 239.356C355.738 238.443 355.097 237.64 353.931 237.04C353.089 236.604 352.074 236.384 350.953 236.363C349.759 236.342 348.441 236.547 347.067 236.959C346.225 237.215 346.024 237.275 345.848 237.329C343.875 237.935 342.962 238.212 342.004 238.212C341.162 238.209 340.443 237.995 339.107 237.6C338.498 237.42 337.751 237.197 336.792 236.938C335.246 236.52 333.766 236.369 332.448 236.526Z" fill="black"/>
<path d="M646.237 123.793C647.344 122.884 648.707 122.36 650.229 122.177C651.783 121.99 653.503 122.162 655.275 122.643C656.248 122.908 657.005 123.131 657.625 123.315C658.799 123.661 659.429 123.851 660 123.851C660.687 123.854 661.515 123.598 663.309 123.05C663.865 122.878 664.475 122.692 664.535 122.674C666.085 122.207 667.593 121.975 668.982 122.002C670.384 122.029 671.666 122.312 672.752 122.872C674.295 123.67 675.148 124.739 675.588 125.952C676.011 127.108 676.046 128.373 675.965 129.652C675.849 131.498 675.475 133.304 674.841 135.069C674.235 136.758 673.393 138.407 672.318 140.021C672.864 142.954 673.016 145.591 672.921 147.921C672.826 150.327 672.477 152.401 672.036 154.132C671.557 156.029 670.867 157.495 670.102 158.254C669.665 158.688 669.175 158.934 668.647 158.965C668.087 158.995 667.558 158.787 667.089 158.305C666.434 157.631 665.839 156.297 665.395 154.156C665.271 153.563 665.201 152.91 665.169 152.627L665.159 152.546L665.137 152.377C664.651 148.162 664.172 144.013 659.842 143.971C657.777 144.375 656.688 145.206 656.082 146.434C655.42 147.78 655.261 149.661 655.078 151.962V151.971C655.053 152.29 654.969 153.365 654.817 154.147C654.398 156.318 653.795 157.67 653.126 158.347C652.657 158.817 652.132 159.025 651.572 158.998C651.043 158.974 650.55 158.733 650.113 158.305C649.342 157.553 648.654 156.092 648.214 154.172C647.851 152.585 647.573 150.48 647.432 147.9C647.308 145.624 647.294 142.975 647.425 139.982C646.681 138.528 646.019 137.065 645.48 135.586C644.923 134.057 644.497 132.506 644.25 130.926C644.046 129.604 643.891 128.394 644.099 127.235C644.321 126.009 644.923 124.877 646.237 123.793ZM650.448 123.526C649.253 123.67 648.193 124.073 647.344 124.775C646.322 125.618 645.853 126.494 645.684 127.43C645.504 128.43 645.645 129.532 645.836 130.742C646.068 132.229 646.473 133.705 647.009 135.174C647.545 136.646 648.214 138.106 648.964 139.57C649.01 139.66 649.035 139.762 649.031 139.868C648.894 142.884 648.908 145.552 649.035 147.837C649.169 150.333 649.44 152.368 649.793 153.907C650.18 155.596 650.733 156.83 651.322 157.405C651.47 157.55 651.59 157.631 651.671 157.634C651.72 157.637 651.801 157.583 651.921 157.465C652.418 156.965 652.89 155.833 653.256 153.928C653.394 153.22 653.475 152.184 653.499 151.877V151.868C653.69 149.445 653.859 147.464 654.627 145.901C655.448 144.239 656.885 143.125 659.591 142.616V142.619C659.644 142.61 659.701 142.604 659.757 142.604C665.624 142.583 666.177 147.373 666.737 152.239L666.755 152.407V152.41L666.765 152.495C666.793 152.747 666.857 153.332 666.98 153.919C667.371 155.815 667.84 156.935 668.326 157.435C668.439 157.553 668.516 157.607 668.559 157.604C668.636 157.601 668.753 157.516 668.9 157.369C669.492 156.779 670.06 155.526 670.483 153.843C670.905 152.169 671.244 150.176 671.335 147.876C671.427 145.567 671.272 142.945 670.708 140.012C670.673 139.859 670.701 139.693 670.803 139.546C671.888 137.953 672.727 136.327 673.326 134.665C673.921 133.006 674.274 131.311 674.38 129.58C674.45 128.439 674.425 127.325 674.069 126.356C673.738 125.443 673.097 124.64 671.931 124.04C671.089 123.604 670.074 123.384 668.953 123.363C667.759 123.342 666.441 123.547 665.067 123.959C664.225 124.215 664.024 124.275 663.848 124.329C661.875 124.935 660.962 125.212 660.004 125.212C659.162 125.209 658.443 124.995 657.107 124.6C656.498 124.42 655.751 124.197 654.792 123.938C653.246 123.52 651.766 123.369 650.448 123.526Z" fill="black"/>
<path d="M169.237 283.793C170.344 282.884 171.707 282.36 173.229 282.177C174.783 281.99 176.503 282.162 178.275 282.643C179.248 282.908 180.005 283.131 180.625 283.315C181.799 283.661 182.429 283.851 183 283.851C183.687 283.854 184.515 283.598 186.309 283.05C186.865 282.878 187.475 282.692 187.535 282.674C189.085 282.207 190.593 281.975 191.982 282.002C193.384 282.029 194.666 282.312 195.752 282.872C197.295 283.67 198.148 284.739 198.588 285.952C199.011 287.108 199.046 288.373 198.965 289.652C198.849 291.498 198.475 293.304 197.841 295.069C197.235 296.758 196.393 298.407 195.318 300.021C195.864 302.954 196.016 305.591 195.921 307.921C195.826 310.327 195.477 312.401 195.036 314.132C194.557 316.029 193.867 317.495 193.102 318.254C192.665 318.688 192.175 318.934 191.647 318.965C191.087 318.995 190.558 318.787 190.089 318.305C189.434 317.631 188.839 316.297 188.395 314.156C188.271 313.563 188.201 312.91 188.169 312.627L188.159 312.546L188.137 312.377C187.651 308.162 187.172 304.013 182.842 303.971C180.777 304.375 179.688 305.206 179.082 306.434C178.42 307.78 178.261 309.661 178.078 311.962V311.971C178.053 312.29 177.969 313.365 177.817 314.147C177.398 316.318 176.795 317.67 176.126 318.347C175.657 318.817 175.132 319.025 174.572 318.998C174.043 318.974 173.55 318.733 173.113 318.305C172.342 317.553 171.654 316.092 171.214 314.172C170.851 312.585 170.573 310.48 170.432 307.9C170.308 305.624 170.294 302.975 170.425 299.982C169.681 298.528 169.019 297.065 168.48 295.586C167.923 294.057 167.497 292.506 167.25 290.926C167.046 289.604 166.891 288.394 167.099 287.235C167.321 286.009 167.923 284.877 169.237 283.793ZM173.448 283.526C172.253 283.67 171.193 284.073 170.344 284.775C169.322 285.618 168.853 286.494 168.684 287.43C168.504 288.43 168.645 289.532 168.836 290.742C169.068 292.229 169.473 293.705 170.009 295.174C170.545 296.646 171.214 298.106 171.964 299.57C172.01 299.66 172.035 299.762 172.031 299.868C171.894 302.884 171.908 305.552 172.035 307.837C172.169 310.333 172.44 312.368 172.793 313.907C173.18 315.596 173.733 316.83 174.322 317.405C174.47 317.55 174.59 317.631 174.671 317.634C174.72 317.637 174.801 317.583 174.921 317.465C175.418 316.965 175.89 315.833 176.256 313.928C176.394 313.22 176.475 312.184 176.499 311.877V311.868C176.69 309.445 176.859 307.464 177.627 305.901C178.448 304.239 179.885 303.125 182.591 302.616V302.619C182.644 302.61 182.701 302.604 182.757 302.604C188.624 302.583 189.177 307.373 189.737 312.239L189.755 312.407V312.41L189.765 312.495C189.793 312.747 189.857 313.332 189.98 313.919C190.371 315.815 190.84 316.935 191.326 317.435C191.439 317.553 191.516 317.607 191.559 317.604C191.636 317.601 191.753 317.516 191.9 317.369C192.492 316.779 193.06 315.526 193.483 313.843C193.905 312.169 194.244 310.176 194.335 307.876C194.427 305.567 194.272 302.945 193.708 300.012C193.673 299.859 193.701 299.693 193.803 299.546C194.888 297.953 195.727 296.327 196.326 294.665C196.921 293.006 197.274 291.311 197.38 289.58C197.45 288.439 197.425 287.325 197.069 286.356C196.738 285.443 196.097 284.64 194.931 284.04C194.089 283.604 193.074 283.384 191.953 283.363C190.759 283.342 189.441 283.547 188.067 283.959C187.225 284.215 187.024 284.275 186.848 284.329C184.875 284.935 183.962 285.212 183.004 285.212C182.162 285.209 181.443 284.995 180.107 284.6C179.498 284.42 178.751 284.197 177.792 283.938C176.246 283.52 174.766 283.369 173.448 283.526Z" fill="black"/>
<path d="M220.726 131.281C222.13 131 223.58 131.18 225.009 131.735C226.468 132.302 227.904 133.263 229.241 134.522C229.974 135.214 230.537 135.767 230.998 136.221C231.87 137.079 232.337 137.544 232.84 137.812C233.445 138.139 234.296 138.303 236.136 138.664C236.708 138.775 237.334 138.897 237.395 138.909C238.983 139.228 240.422 139.733 241.634 140.411C242.858 141.095 243.857 141.949 244.55 142.954C245.536 144.384 245.785 145.729 245.602 147.007C245.431 148.226 244.866 149.358 244.192 150.448C243.221 152.022 242.041 153.44 240.65 154.697C239.32 155.902 237.8 156.961 236.092 157.878C235.193 160.722 234.085 163.12 232.904 165.131C231.687 167.209 230.403 168.874 229.199 170.194C227.883 171.642 226.583 172.61 225.551 172.919C224.962 173.096 224.413 173.083 223.933 172.861C223.425 172.624 223.056 172.192 222.87 171.546C222.609 170.642 222.712 169.185 223.328 167.088C223.499 166.507 223.744 165.897 223.849 165.632L223.878 165.556L223.939 165.397C225.495 161.45 227.026 157.564 223.226 155.488C221.214 154.871 219.862 155.092 218.749 155.89C217.531 156.765 216.505 158.35 215.26 160.293L215.256 160.301C215.084 160.571 214.503 161.48 214.001 162.099C212.609 163.816 211.441 164.725 210.531 165.008C209.897 165.201 209.336 165.137 208.854 164.849C208.399 164.579 208.078 164.135 207.893 163.552C207.567 162.524 207.649 160.913 208.165 159.011C208.592 157.44 209.337 155.452 210.428 153.11C211.391 151.044 212.626 148.7 214.15 146.121C214.179 144.488 214.284 142.886 214.504 141.328C214.733 139.716 215.087 138.148 215.614 136.637C216.056 135.375 216.489 134.234 217.219 133.31C217.992 132.333 219.056 131.618 220.726 131.281ZM224.567 133.027C223.445 132.592 222.319 132.449 221.24 132.668C219.941 132.93 219.115 133.482 218.525 134.229C217.896 135.026 217.502 136.064 217.099 137.222C216.604 138.643 216.267 140.136 216.048 141.684C215.827 143.235 215.73 144.838 215.703 146.483C215.701 146.584 215.674 146.686 215.621 146.777C214.08 149.374 212.836 151.733 211.872 153.809C210.815 156.074 210.096 157.997 209.682 159.52C209.228 161.193 209.135 162.542 209.384 163.327C209.446 163.524 209.513 163.652 209.583 163.693C209.626 163.719 209.723 163.709 209.884 163.662C210.557 163.455 211.507 162.679 212.728 161.17C213.182 160.61 213.741 159.735 213.907 159.476L213.912 159.468C215.221 157.419 216.303 155.751 217.716 154.734C219.223 153.655 221.016 153.349 223.643 154.175L223.641 154.177C223.692 154.194 223.745 154.215 223.795 154.242C228.98 156.986 227.212 161.472 225.416 166.028L225.352 166.185L225.35 166.188L225.32 166.267C225.226 166.504 225.007 167.049 224.839 167.625C224.291 169.482 224.177 170.691 224.37 171.361C224.415 171.517 224.457 171.602 224.496 171.619C224.566 171.653 224.708 171.633 224.908 171.573C225.708 171.331 226.799 170.493 227.964 169.208C229.125 167.93 230.362 166.331 231.526 164.345C232.695 162.351 233.793 159.965 234.676 157.112C234.717 156.96 234.82 156.827 234.98 156.745C236.687 155.851 238.193 154.812 239.504 153.628C240.81 152.445 241.919 151.115 242.828 149.638C243.427 148.665 243.93 147.67 244.073 146.647C244.21 145.687 244.023 144.676 243.276 143.598C242.739 142.816 241.947 142.144 240.968 141.598C239.925 141.017 238.666 140.577 237.259 140.294C236.396 140.123 236.19 140.082 236.009 140.047C233.984 139.651 233.048 139.466 232.203 139.014C231.461 138.615 230.928 138.088 229.935 137.111C229.483 136.665 228.929 136.117 228.205 135.437C227.038 134.339 225.803 133.51 224.567 133.027Z" fill="black"/>
<path d="M211.237 470.207C212.344 471.116 213.707 471.64 215.229 471.823C216.783 472.01 218.503 471.838 220.275 471.357C221.248 471.092 222.005 470.869 222.625 470.685C223.799 470.339 224.429 470.149 225 470.149C225.687 470.146 226.515 470.402 228.309 470.95C228.865 471.122 229.475 471.308 229.535 471.326C231.085 471.793 232.593 472.025 233.982 471.998C235.384 471.971 236.666 471.688 237.752 471.128C239.295 470.33 240.148 469.261 240.588 468.048C241.011 466.892 241.046 465.627 240.965 464.348C240.849 462.502 240.475 460.696 239.841 458.931C239.235 457.242 238.393 455.593 237.318 453.979C237.864 451.046 238.016 448.409 237.921 446.079C237.826 443.673 237.477 441.599 237.036 439.868C236.557 437.971 235.867 436.505 235.102 435.746C234.665 435.312 234.175 435.066 233.647 435.035C233.087 435.005 232.558 435.213 232.089 435.695C231.434 436.369 230.839 437.703 230.395 439.844C230.271 440.437 230.201 441.09 230.169 441.373L230.159 441.454L230.137 441.623C229.651 445.838 229.172 449.987 224.842 450.029C222.777 449.625 221.688 448.794 221.082 447.566C220.42 446.22 220.261 444.339 220.078 442.038V442.029C220.053 441.71 219.969 440.635 219.817 439.853C219.398 437.682 218.795 436.33 218.126 435.653C217.657 435.183 217.132 434.975 216.572 435.002C216.043 435.026 215.55 435.267 215.113 435.695C214.342 436.447 213.654 437.908 213.214 439.828C212.851 441.415 212.573 443.52 212.432 446.1C212.308 448.376 212.294 451.025 212.425 454.018C211.681 455.472 211.019 456.935 210.48 458.414C209.923 459.943 209.497 461.494 209.25 463.074C209.046 464.396 208.891 465.606 209.099 466.765C209.321 467.991 209.923 469.123 211.237 470.207ZM215.448 470.474C214.253 470.33 213.193 469.927 212.344 469.225C211.322 468.382 210.853 467.506 210.684 466.57C210.504 465.57 210.645 464.468 210.836 463.258C211.068 461.771 211.473 460.295 212.009 458.826C212.545 457.354 213.214 455.894 213.964 454.43C214.01 454.34 214.035 454.238 214.031 454.132C213.894 451.116 213.908 448.448 214.035 446.163C214.169 443.667 214.44 441.632 214.793 440.093C215.18 438.404 215.733 437.17 216.322 436.595C216.47 436.45 216.59 436.369 216.671 436.366C216.72 436.363 216.801 436.417 216.921 436.535C217.418 437.035 217.89 438.167 218.256 440.072C218.394 440.78 218.475 441.816 218.499 442.123V442.132C218.69 444.555 218.859 446.536 219.627 448.099C220.448 449.761 221.885 450.875 224.591 451.384V451.381C224.644 451.39 224.701 451.396 224.757 451.396C230.624 451.417 231.177 446.627 231.737 441.761L231.755 441.593V441.59L231.765 441.505C231.793 441.253 231.857 440.668 231.98 440.081C232.371 438.185 232.84 437.065 233.326 436.565C233.439 436.447 233.516 436.393 233.559 436.396C233.636 436.399 233.753 436.484 233.9 436.631C234.492 437.221 235.06 438.474 235.483 440.157C235.905 441.831 236.244 443.824 236.335 446.124C236.427 448.433 236.272 451.055 235.708 453.988C235.673 454.141 235.701 454.307 235.803 454.454C236.888 456.047 237.727 457.673 238.326 459.335C238.921 460.994 239.274 462.689 239.38 464.42C239.45 465.561 239.425 466.675 239.069 467.644C238.738 468.557 238.097 469.36 236.931 469.96C236.089 470.396 235.074 470.616 233.953 470.637C232.759 470.658 231.441 470.453 230.067 470.041C229.225 469.785 229.024 469.725 228.848 469.671C226.875 469.065 225.962 468.788 225.004 468.788C224.162 468.791 223.443 469.005 222.107 469.4C221.498 469.58 220.751 469.803 219.792 470.062C218.246 470.48 216.766 470.631 215.448 470.474Z" fill="black"/>
<path d="M493.356 166.311C493.37 164.879 493.844 163.498 494.682 162.213C495.537 160.903 496.773 159.696 498.281 158.647C499.109 158.072 499.767 157.635 500.306 157.278C501.325 156.601 501.876 156.24 502.242 155.802C502.686 155.278 503.022 154.479 503.755 152.752C503.981 152.216 504.23 151.629 504.254 151.571C504.893 150.083 505.684 148.779 506.597 147.732C507.519 146.675 508.56 145.874 509.686 145.402C511.289 144.733 512.656 144.766 513.869 145.208C515.026 145.627 516.018 146.412 516.946 147.297C518.286 148.572 519.43 150.018 520.374 151.638C521.279 153.188 522.002 154.893 522.548 156.753C525.146 158.219 527.264 159.798 528.989 161.368C530.771 162.986 532.136 164.586 533.18 166.036C534.325 167.622 535.005 169.093 535.095 170.167C535.146 170.78 535.021 171.314 534.704 171.738C534.368 172.187 533.869 172.459 533.199 172.508C532.261 172.577 530.856 172.176 528.931 171.141C528.397 170.855 527.851 170.489 527.614 170.331L527.545 170.287L527.402 170.195C523.86 167.859 520.373 165.561 517.558 168.852C516.54 170.693 516.478 172.061 517.029 173.315C517.635 174.687 518.975 176.018 520.62 177.636L520.627 177.642C520.855 177.866 521.625 178.621 522.127 179.24C523.521 180.956 524.17 182.287 524.259 183.235C524.317 183.896 524.139 184.432 523.759 184.843C523.401 185.233 522.899 185.456 522.291 185.516C521.218 185.624 519.658 185.212 517.903 184.316C516.454 183.574 514.663 182.435 512.595 180.885C510.772 179.517 508.732 177.826 506.523 175.803C504.931 175.438 503.384 175.006 501.905 174.469C500.376 173.913 498.913 173.243 497.544 172.417C496.4 171.724 495.373 171.065 494.618 170.161C493.822 169.204 493.342 168.015 493.356 166.311ZM495.856 162.913C495.199 163.921 494.827 164.993 494.818 166.094C494.808 167.419 495.178 168.341 495.787 169.072C496.437 169.852 497.372 170.452 498.422 171.084C499.711 171.861 501.102 172.499 502.572 173.032C504.044 173.568 505.593 173.993 507.196 174.358C507.295 174.381 507.389 174.428 507.468 174.498C509.691 176.542 511.744 178.245 513.577 179.616C515.575 181.117 517.309 182.217 518.714 182.936C520.257 183.724 521.559 184.093 522.377 184.012C522.583 183.991 522.723 183.952 522.777 183.892C522.811 183.856 522.821 183.759 522.808 183.592C522.745 182.89 522.181 181.801 520.956 180.295C520.502 179.735 519.76 179.008 519.541 178.792L519.534 178.786C517.799 177.083 516.39 175.68 515.686 174.088C514.94 172.391 515.01 170.573 516.359 168.173L516.361 168.175C516.389 168.129 516.42 168.082 516.456 168.038C520.21 163.529 524.236 166.183 528.324 168.88L528.464 168.975L528.466 168.977L528.538 169.023C528.75 169.164 529.238 169.491 529.767 169.773C531.472 170.692 532.631 171.053 533.326 171.001C533.489 170.99 533.58 170.966 533.605 170.932C533.653 170.87 533.663 170.727 533.645 170.519C533.573 169.686 532.978 168.447 531.96 167.041C530.949 165.642 529.639 164.102 527.935 162.554C526.225 161 524.116 159.434 521.506 157.981C521.366 157.91 521.257 157.782 521.21 157.609C520.687 155.754 519.98 154.067 519.091 152.54C518.203 151.018 517.13 149.658 515.872 148.465C515.043 147.678 514.173 146.981 513.202 146.631C512.29 146.299 511.262 146.273 510.054 146.782C509.178 147.147 508.358 147.783 507.621 148.628C506.838 149.53 506.148 150.671 505.581 151.989C505.236 152.799 505.153 152.992 505.082 153.161C504.277 155.062 503.903 155.939 503.287 156.674C502.744 157.317 502.118 157.731 500.958 158.5C500.428 158.851 499.777 159.281 498.963 159.849C497.649 160.765 496.582 161.802 495.856 162.913Z" fill="black"/>
<path d="M558.961 402.974C560.362 402.678 561.813 402.843 563.248 403.383C564.713 403.934 566.159 404.88 567.509 406.126C568.249 406.81 568.818 407.357 569.283 407.806C570.164 408.655 570.636 409.115 571.143 409.378C571.751 409.698 572.603 409.853 574.447 410.195C575.02 410.3 575.647 410.416 575.709 410.427C577.299 410.729 578.744 411.22 579.963 411.885C581.195 412.556 582.202 413.399 582.906 414.397C583.906 415.817 584.169 417.159 584 418.439C583.841 419.659 583.289 420.797 582.626 421.895C581.671 423.478 580.506 424.908 579.129 426.181C577.811 427.399 576.303 428.474 574.604 429.409C573.735 432.262 572.652 434.672 571.492 436.695C570.297 438.785 569.03 440.464 567.84 441.796C566.539 443.258 565.25 444.239 564.221 444.56C563.633 444.742 563.085 444.735 562.602 444.518C562.091 444.286 561.718 443.858 561.525 443.214C561.255 442.313 561.343 440.855 561.937 438.752C562.101 438.168 562.341 437.556 562.443 437.291L562.471 437.214L562.53 437.054C564.045 433.091 565.535 429.19 561.713 427.153C559.695 426.558 558.346 426.792 557.241 427.602C556.032 428.49 555.023 430.086 553.799 432.042L553.794 432.05C553.625 432.321 553.054 433.236 552.558 433.86C551.184 435.592 550.026 436.513 549.119 436.805C548.487 437.005 547.925 436.947 547.44 436.665C546.983 436.399 546.656 435.958 546.466 435.377C546.129 434.353 546.194 432.74 546.69 430.833C547.1 429.258 547.825 427.263 548.891 424.909C549.833 422.833 551.043 420.477 552.54 417.882C552.552 416.249 552.64 414.645 552.844 413.085C553.057 411.471 553.394 409.899 553.905 408.383C554.334 407.116 554.755 405.971 555.475 405.039C556.237 404.054 557.295 403.328 558.961 402.974ZM562.819 404.68C561.693 404.257 560.566 404.125 559.489 404.355C558.193 404.631 557.373 405.192 556.791 405.944C556.17 406.748 555.786 407.791 555.396 408.952C554.916 410.379 554.595 411.875 554.391 413.425C554.187 414.978 554.106 416.583 554.097 418.227C554.096 418.328 554.07 418.43 554.018 418.522C552.504 421.135 551.285 423.508 550.342 425.593C549.309 427.869 548.61 429.8 548.212 431.327C547.776 433.004 547.697 434.355 547.954 435.136C548.018 435.333 548.087 435.46 548.158 435.5C548.2 435.526 548.297 435.515 548.457 435.466C549.129 435.252 550.07 434.466 551.275 432.945C551.724 432.381 552.274 431.499 552.437 431.238L552.441 431.23C553.729 429.168 554.794 427.489 556.196 426.457C557.692 425.362 559.481 425.038 562.117 425.836L562.115 425.838C562.166 425.855 562.219 425.875 562.269 425.902C567.483 428.591 565.762 433.096 564.013 437.67L563.951 437.828L563.95 437.83L563.92 437.91C563.828 438.147 563.615 438.695 563.453 439.273C562.925 441.136 562.823 442.345 563.024 443.013C563.07 443.169 563.113 443.253 563.152 443.27C563.222 443.303 563.364 443.282 563.564 443.22C564.361 442.969 565.443 442.12 566.595 440.823C567.743 439.533 568.963 437.921 570.106 435.923C571.253 433.917 572.326 431.519 573.18 428.658C573.22 428.505 573.321 428.371 573.48 428.288C575.178 427.376 576.672 426.321 577.971 425.123C579.265 423.927 580.36 422.586 581.253 421.099C581.842 420.119 582.335 419.12 582.467 418.095C582.594 417.133 582.396 416.124 581.638 415.054C581.093 414.278 580.294 413.615 579.31 413.079C578.26 412.509 576.997 412.082 575.587 411.813C574.722 411.652 574.516 411.612 574.335 411.579C572.305 411.205 571.368 411.029 570.518 410.587C569.772 410.195 569.233 409.674 568.231 408.708C567.773 408.266 567.213 407.724 566.483 407.051C565.304 405.966 564.061 405.149 562.819 404.68Z" fill="black"/>
<path d="M104.939 404.497C104.611 403.104 104.741 401.649 105.246 400.201C105.763 398.724 106.675 397.256 107.888 395.877C108.554 395.121 109.088 394.539 109.526 394.063C110.353 393.162 110.801 392.679 111.053 392.167C111.358 391.551 111.493 390.695 111.791 388.844C111.882 388.268 111.983 387.639 111.993 387.577C112.257 385.98 112.713 384.524 113.349 383.289C113.991 382.042 114.81 381.015 115.791 380.288C117.187 379.254 118.522 378.959 119.805 379.098C121.029 379.227 122.18 379.753 123.293 380.389C124.899 381.306 126.356 382.437 127.661 383.784C128.91 385.072 130.02 386.554 130.996 388.23C133.869 389.031 136.303 390.057 138.354 391.169C140.471 392.314 142.18 393.54 143.54 394.698C145.032 395.964 146.044 397.23 146.389 398.25C146.585 398.834 146.591 399.382 146.386 399.87C146.166 400.386 145.746 400.769 145.108 400.978C144.214 401.269 142.754 401.216 140.636 400.672C140.05 400.521 139.432 400.297 139.164 400.201L139.086 400.174L138.926 400.119C134.927 398.699 130.992 397.302 129.047 401.171C128.499 403.203 128.766 404.546 129.602 405.631C130.518 406.819 132.138 407.79 134.122 408.967L134.13 408.971C134.406 409.134 135.333 409.683 135.969 410.164C137.734 411.497 138.682 412.633 138.995 413.532C139.21 414.16 139.166 414.723 138.895 415.214C138.64 415.678 138.207 416.015 137.63 416.219C136.615 416.58 135.001 416.553 133.083 416.103C131.498 415.73 129.487 415.053 127.108 414.043C125.01 413.151 122.625 411.997 119.996 410.562C118.363 410.589 116.758 410.539 115.193 410.372C113.575 410.198 111.995 409.898 110.467 409.423C109.191 409.024 108.036 408.63 107.087 407.933C106.085 407.194 105.334 406.155 104.939 404.497ZM106.553 400.599C106.157 401.735 106.052 402.865 106.308 403.936C106.615 405.225 107.195 406.032 107.961 406.596C108.779 407.198 109.831 407.556 111.001 407.919C112.439 408.365 113.942 408.651 115.496 408.817C117.054 408.985 118.66 409.027 120.304 408.998C120.405 408.996 120.508 409.019 120.601 409.069C123.249 410.521 125.65 411.683 127.757 412.576C130.057 413.555 132.004 414.208 133.54 414.569C135.227 414.965 136.579 415.012 137.355 414.737C137.549 414.668 137.675 414.596 137.714 414.525C137.738 414.482 137.725 414.385 137.672 414.226C137.443 413.56 136.634 412.637 135.085 411.469C134.51 411.034 133.616 410.505 133.351 410.347L133.343 410.343C131.251 409.105 129.547 408.081 128.482 406.703C127.352 405.234 126.985 403.453 127.72 400.799L127.723 400.8C127.738 400.749 127.757 400.696 127.782 400.645C130.347 395.369 134.891 396.982 139.506 398.622L139.665 398.68L139.668 398.682L139.748 398.709C139.988 398.795 140.54 398.996 141.121 399.144C142.996 399.628 144.208 399.7 144.871 399.484C145.026 399.435 145.109 399.389 145.125 399.35C145.156 399.279 145.132 399.137 145.065 398.939C144.796 398.148 143.921 397.087 142.596 395.966C141.28 394.849 139.639 393.668 137.615 392.572C135.582 391.473 133.159 390.457 130.278 389.672C130.125 389.636 129.989 389.537 129.901 389.381C128.949 387.705 127.859 386.236 126.631 384.966C125.404 383.701 124.037 382.638 122.53 381.781C121.536 381.215 120.526 380.746 119.498 380.639C118.534 380.534 117.529 380.756 116.478 381.539C115.715 382.103 115.071 382.917 114.558 383.914C114.013 384.977 113.617 386.25 113.382 387.666C113.241 388.534 113.206 388.741 113.177 388.923C112.851 390.961 112.698 391.902 112.276 392.763C111.902 393.518 111.394 394.069 110.452 395.094C110.021 395.562 109.492 396.134 108.837 396.881C107.78 398.085 106.993 399.347 106.553 400.599Z" fill="black"/>
</svg>
