<svg width="800" height="800" viewBox="0 0 800 800" fill="none" xmlns="http://www.w3.org/2000/svg">
<path d="M253.428 255.938C252.53 255.7 251.57 255.818 250.725 256.271C250.284 256.508 249.902 256.821 249.595 257.191L244.608 255.866C244.145 254.017 242.716 252.485 240.681 251.944L240.681 251.944C238.739 251.428 236.631 251.913 235.04 253.24C234.763 253.471 234.59 253.798 234.563 254.142C234.536 254.486 234.656 254.818 234.897 255.06C235.714 255.883 235.984 257.094 235.602 258.222L231.327 270.855C230.826 272.338 230.943 273.888 231.658 275.221C232.373 276.554 233.6 277.509 235.113 277.911C237.054 278.428 239.162 277.944 240.753 276.616C241.031 276.384 241.203 276.058 241.231 275.714C241.246 275.519 241.214 275.328 241.14 275.155L243.087 275.673L230.158 313.882C229.86 314.762 229.93 315.682 230.354 316.473C230.778 317.264 231.506 317.831 232.404 318.07C233.331 318.316 234.296 318.17 235.106 317.735C235.916 317.3 236.572 316.577 236.879 315.669L255.674 260.126C255.972 259.246 255.902 258.326 255.478 257.535C255.053 256.744 254.326 256.177 253.428 255.938ZM244.466 259.001C244.522 258.835 244.57 258.669 244.611 258.503L248.543 259.549L247.998 261.16L244.087 260.121L244.466 259.001ZM242.723 264.152L243.269 262.54L247.179 263.58L246.634 265.191L242.723 264.152ZM245.815 267.611L245.27 269.222L241.359 268.183L241.905 266.571L245.815 267.611ZM237.723 270.978C237.461 271.751 237.372 272.547 237.446 273.316C237.448 273.373 237.454 273.429 237.464 273.484C237.548 274.147 237.753 274.786 238.071 275.372C237.388 275.632 236.64 275.68 235.931 275.492C235.078 275.265 234.386 274.726 233.982 273.974C233.579 273.222 233.513 272.348 233.796 271.511L238.071 258.878C238.578 257.378 238.436 255.796 237.723 254.483C238.406 254.223 239.154 254.175 239.862 254.364C241.624 254.832 242.582 256.618 241.998 258.344L239.85 264.691C239.849 264.696 239.847 264.701 239.845 264.705C239.844 264.71 239.842 264.715 239.84 264.72L237.723 270.978ZM240.051 272.229C240.078 272.03 240.125 271.83 240.191 271.634L240.54 270.602L244.451 271.642L243.906 273.254L240.051 272.229ZM253.205 259.469L234.411 315.013C234.248 315.495 233.715 315.781 233.223 315.65C232.731 315.519 232.463 315.021 232.626 314.538L248.693 267.058C248.693 267.058 248.693 267.058 248.693 267.057C248.693 267.057 248.693 267.056 248.693 267.056L251.421 258.995C251.584 258.513 252.117 258.227 252.609 258.358C252.848 258.421 253.041 258.572 253.153 258.782C253.266 258.992 253.285 259.236 253.205 259.469Z" fill="black"/>
<path d="M605.14 193.319C604.351 192.828 603.399 192.66 602.458 192.846C601.967 192.943 601.51 193.13 601.108 193.395L596.728 190.667C596.826 188.764 595.908 186.881 594.121 185.768L594.12 185.768C592.415 184.706 590.257 184.552 588.347 185.356C588.014 185.496 587.754 185.757 587.627 186.079C587.5 186.4 587.518 186.753 587.677 187.054C588.218 188.08 588.122 189.317 587.426 190.284L579.641 201.113C578.727 202.383 578.385 203.9 578.679 205.384C578.972 206.868 579.866 208.14 581.194 208.968C582.9 210.03 585.057 210.184 586.967 209.38C587.301 209.24 587.561 208.979 587.688 208.657C587.76 208.476 587.785 208.284 587.765 208.097L589.475 209.162L565.927 241.913C565.385 242.667 565.182 243.567 565.356 244.447C565.53 245.328 566.06 246.083 566.849 246.574C567.663 247.08 568.628 247.223 569.53 247.045C570.433 246.866 571.271 246.367 571.831 245.588L606.062 197.98C606.604 197.226 606.807 196.326 606.633 195.445C606.458 194.565 605.928 193.81 605.14 193.319ZM595.674 193.624C595.776 193.482 595.871 193.337 595.958 193.19L599.412 195.341L598.419 196.722L594.984 194.584L595.674 193.624ZM592.5 198.039L593.493 196.657L596.928 198.796L595.935 200.178L592.5 198.039ZM594.444 202.251L593.45 203.633L590.015 201.494L591.008 200.113L594.444 202.251ZM585.72 203.102C585.244 203.765 584.926 204.5 584.77 205.257C584.756 205.312 584.745 205.367 584.739 205.423C584.625 206.081 584.634 206.752 584.767 207.406C584.037 207.455 583.308 207.282 582.686 206.894C581.936 206.427 581.432 205.709 581.266 204.872C581.101 204.035 581.294 203.179 581.809 202.462L589.595 191.634C590.519 190.349 590.846 188.794 590.548 187.33C591.278 187.281 592.007 187.454 592.629 187.842C594.177 188.805 594.57 190.793 593.506 192.273L589.595 197.713C589.592 197.717 589.589 197.721 589.586 197.726C589.583 197.73 589.58 197.734 589.577 197.738L585.72 203.102ZM587.58 204.98C587.664 204.797 587.767 204.62 587.888 204.452L588.524 203.568L591.959 205.707L590.966 207.088L587.58 204.98ZM603.893 196.63L569.662 244.238C569.365 244.652 568.772 244.769 568.34 244.5C567.908 244.231 567.798 243.676 568.095 243.263L597.357 202.566C597.357 202.565 597.357 202.565 597.357 202.564C597.358 202.564 597.358 202.564 597.358 202.563L602.326 195.654C602.623 195.241 603.216 195.123 603.649 195.392C603.858 195.523 603.999 195.723 604.045 195.957C604.091 196.191 604.037 196.43 603.893 196.63Z" fill="black"/>
<path d="M252.267 386.089C251.531 386.657 251.042 387.491 250.888 388.438C250.808 388.932 250.824 389.426 250.931 389.894L246.848 393.048C245.098 392.292 243.013 392.496 241.347 393.783L241.347 393.783C239.757 395.011 238.86 396.98 238.947 399.05C238.962 399.411 239.116 399.746 239.373 399.977C239.63 400.208 239.967 400.314 240.305 400.27C241.455 400.122 242.581 400.643 243.245 401.632L250.678 412.705C251.55 414.005 252.853 414.854 254.346 415.097C255.838 415.339 257.343 414.946 258.582 413.989C260.172 412.761 261.069 410.793 260.982 408.722C260.967 408.361 260.812 408.026 260.555 407.795C260.41 407.664 260.239 407.574 260.057 407.527L261.651 406.296L284.133 439.788C284.651 440.559 285.424 441.063 286.31 441.207C287.195 441.35 288.088 441.117 288.823 440.549C289.582 439.963 290.053 439.108 290.2 438.2C290.347 437.293 290.172 436.332 289.637 435.536L256.957 386.851C256.439 386.08 255.666 385.576 254.78 385.432C253.894 385.288 253.002 385.522 252.267 386.089ZM249.251 395.067C249.153 394.922 249.051 394.783 248.944 394.65L252.164 392.162L253.113 393.575L249.91 396.049L249.251 395.067ZM252.282 399.582L251.333 398.169L254.536 395.696L255.484 397.108L252.282 399.582ZM256.908 399.229L257.856 400.642L254.654 403.115L253.705 401.703L256.908 399.229ZM254.663 407.701C255.118 408.379 255.695 408.934 256.351 409.343C256.397 409.376 256.446 409.405 256.496 409.431C257.072 409.767 257.705 409.993 258.364 410.096C258.155 410.797 257.738 411.42 257.158 411.868C256.459 412.408 255.61 412.63 254.768 412.493C253.926 412.356 253.191 411.877 252.699 411.144L245.266 400.071C244.384 398.756 243.04 397.907 241.565 397.676C241.774 396.975 242.19 396.352 242.77 395.904C244.213 394.79 246.213 395.114 247.229 396.628L250.963 402.191C250.966 402.195 250.969 402.199 250.972 402.204C250.975 402.208 250.978 402.212 250.981 402.216L254.663 407.701ZM257.071 406.614C256.929 406.471 256.8 406.312 256.684 406.14L256.077 405.236L259.28 402.763L260.228 404.175L257.071 406.614ZM254.935 388.412L287.616 437.098C287.899 437.52 287.802 438.117 287.4 438.429C286.997 438.74 286.438 438.649 286.155 438.226L258.218 396.609C258.218 396.608 258.218 396.608 258.217 396.607C258.217 396.607 258.217 396.607 258.217 396.606L253.474 389.541C253.19 389.118 253.287 388.521 253.69 388.21C253.885 388.059 254.122 387.997 254.357 388.035C254.593 388.074 254.798 388.207 254.935 388.412Z" fill="black"/>
<path d="M137.405 456.834C136.67 457.402 136.18 458.236 136.027 459.183C135.946 459.677 135.963 460.17 136.07 460.639L131.986 463.793C130.237 463.037 128.152 463.241 126.485 464.528L126.485 464.528C124.896 465.756 123.998 467.725 124.085 469.795C124.101 470.156 124.255 470.491 124.512 470.722C124.769 470.953 125.106 471.059 125.444 471.015C126.593 470.867 127.72 471.388 128.383 472.377L135.816 483.45C136.689 484.75 137.991 485.599 139.484 485.841C140.977 486.084 142.481 485.69 143.72 484.734C145.31 483.506 146.207 481.538 146.12 479.467C146.105 479.106 145.951 478.771 145.694 478.54C145.549 478.409 145.378 478.319 145.195 478.272L146.79 477.041L169.272 510.532C169.79 511.304 170.562 511.808 171.448 511.951C172.334 512.095 173.227 511.862 173.962 511.294C174.721 510.708 175.191 509.853 175.339 508.945C175.486 508.037 175.31 507.077 174.776 506.281L142.095 457.596C141.577 456.824 140.805 456.32 139.919 456.177C139.033 456.033 138.14 456.266 137.405 456.834ZM134.389 465.812C134.292 465.666 134.189 465.527 134.082 465.395L137.303 462.907L138.251 464.32L135.049 466.793L134.389 465.812ZM137.42 470.327L136.472 468.914L139.675 466.44L140.623 467.853L137.42 470.327ZM142.046 469.974L142.995 471.387L139.792 473.86L138.844 472.447L142.046 469.974ZM139.801 478.446C140.256 479.124 140.834 479.678 141.489 480.088C141.536 480.121 141.584 480.15 141.634 480.175C142.211 480.511 142.843 480.738 143.502 480.841C143.294 481.542 142.877 482.165 142.297 482.613C141.598 483.153 140.749 483.375 139.907 483.238C139.065 483.101 138.33 482.622 137.838 481.889L130.405 470.815C129.522 469.501 128.179 468.652 126.704 468.421C126.912 467.72 127.329 467.097 127.909 466.649C129.352 465.534 131.352 465.859 132.368 467.373L136.102 472.936C136.105 472.94 136.108 472.944 136.11 472.948C136.113 472.953 136.116 472.957 136.119 472.961L139.801 478.446ZM142.21 477.358C142.068 477.216 141.938 477.057 141.823 476.885L141.216 475.981L144.418 473.507L145.367 474.92L142.21 477.358ZM140.074 459.157L172.754 507.843C173.038 508.265 172.941 508.862 172.538 509.173C172.135 509.484 171.577 509.394 171.293 508.971L143.357 467.353C143.357 467.353 143.356 467.353 143.356 467.352C143.356 467.352 143.356 467.352 143.355 467.351L138.612 460.286C138.329 459.863 138.426 459.266 138.829 458.955C139.024 458.804 139.261 458.742 139.496 458.78C139.731 458.818 139.936 458.952 140.074 459.157Z" fill="black"/>
<path d="M580 311.928C579.071 311.924 578.172 312.281 577.469 312.934C577.102 313.274 576.812 313.674 576.608 314.11L571.449 314.089C570.533 312.417 568.762 311.297 566.657 311.288L566.657 311.288C564.648 311.28 562.73 312.282 561.527 313.969C561.317 314.263 561.233 314.622 561.294 314.962C561.355 315.302 561.555 315.593 561.849 315.766C562.847 316.356 563.416 317.459 563.332 318.647L562.392 331.95C562.281 333.512 562.787 334.982 563.816 336.091C564.845 337.199 566.273 337.813 567.839 337.819C569.848 337.828 571.765 336.826 572.968 335.139C573.178 334.845 573.263 334.486 573.202 334.146C573.167 333.954 573.088 333.777 572.973 333.628L574.988 333.637L572.145 373.874C572.079 374.801 572.379 375.673 572.99 376.331C573.6 376.989 574.448 377.353 575.377 377.357C576.336 377.361 577.232 376.975 577.907 376.35C578.581 375.724 579.032 374.858 579.099 373.902L583.232 315.411C583.297 314.484 582.997 313.612 582.387 312.954C581.776 312.296 580.929 311.932 580 311.928ZM572.104 317.158C572.117 316.983 572.121 316.811 572.118 316.64L576.187 316.657L576.067 318.354L572.021 318.337L572.104 317.158ZM571.721 322.582L571.841 320.885L575.887 320.902L575.767 322.599L571.721 322.582ZM575.588 325.147L575.468 326.844L571.421 326.827L571.541 325.13L575.588 325.147ZM568.61 330.451C568.553 331.266 568.668 332.058 568.933 332.784C568.95 332.838 568.97 332.891 568.994 332.942C569.242 333.561 569.602 334.128 570.059 334.615C569.463 335.039 568.752 335.275 568.019 335.272C567.136 335.268 566.33 334.922 565.749 334.296C565.169 333.671 564.884 332.842 564.946 331.961L565.886 318.657C565.997 317.078 565.459 315.583 564.437 314.493C565.032 314.069 565.744 313.833 566.477 313.836C568.3 313.843 569.679 315.329 569.55 317.147L569.078 323.831C569.077 323.836 569.077 323.841 569.077 323.846C569.076 323.851 569.076 323.856 569.076 323.861L568.61 330.451ZM571.179 331.073C571.155 330.873 571.15 330.669 571.164 330.462L571.241 329.375L575.288 329.392L575.168 331.089L571.179 331.073ZM580.678 315.4L576.545 373.892C576.509 374.399 576.066 374.811 575.557 374.809C575.048 374.807 574.663 374.392 574.699 373.884L578.231 323.884C578.232 323.884 578.232 323.883 578.232 323.883C578.232 323.883 578.232 323.882 578.232 323.882L578.831 315.393C578.867 314.886 579.31 314.474 579.82 314.476C580.066 314.477 580.291 314.574 580.453 314.748C580.616 314.923 580.695 315.155 580.678 315.4Z" fill="black"/>
<path d="M647.209 383.371C648.106 383.13 649.066 383.245 649.913 383.696C650.354 383.932 650.737 384.244 651.046 384.613L656.028 383.273C656.486 381.424 657.912 379.888 659.945 379.341L659.945 379.341C661.885 378.82 663.995 379.298 665.589 380.621C665.867 380.851 666.041 381.177 666.069 381.521C666.097 381.866 665.977 382.198 665.738 382.441C664.923 383.266 664.656 384.478 665.041 385.604L669.351 398.226C669.857 399.707 669.744 401.258 669.033 402.592C668.322 403.927 667.098 404.886 665.586 405.292C663.646 405.814 661.537 405.336 659.942 404.013C659.664 403.782 659.49 403.456 659.462 403.112C659.446 402.917 659.477 402.726 659.551 402.553L657.605 403.076L670.642 441.249C670.942 442.128 670.875 443.048 670.453 443.841C670.031 444.633 669.305 445.202 668.408 445.443C667.482 445.692 666.516 445.548 665.705 445.116C664.893 444.683 664.236 443.962 663.926 443.055L644.975 387.564C644.675 386.685 644.742 385.765 645.164 384.973C645.586 384.181 646.312 383.612 647.209 383.371ZM656.179 386.408C656.123 386.243 656.074 386.077 656.034 385.911L652.104 386.968L652.654 388.578L656.561 387.527L656.179 386.408ZM657.937 391.554L657.387 389.944L653.479 390.995L654.029 392.605L657.937 391.554ZM654.854 395.022L655.404 396.632L659.312 395.581L658.762 393.971L654.854 395.022ZM662.956 398.366C663.22 399.139 663.311 399.934 663.24 400.704C663.238 400.761 663.232 400.817 663.222 400.872C663.14 401.534 662.937 402.175 662.62 402.762C663.304 403.02 664.053 403.066 664.761 402.875C665.613 402.646 666.304 402.105 666.705 401.352C667.106 400.599 667.17 399.724 666.885 398.888L662.575 386.267C662.063 384.769 662.201 383.186 662.91 381.872C662.226 381.614 661.478 381.568 660.77 381.758C659.01 382.231 658.057 384.02 658.646 385.745L660.811 392.085C660.813 392.09 660.815 392.095 660.816 392.1C660.818 392.104 660.82 392.109 660.821 392.114L662.956 398.366ZM660.632 399.624C660.604 399.425 660.557 399.226 660.49 399.029L660.138 397.999L656.23 399.049L656.78 400.659L660.632 399.624ZM647.441 386.901L666.392 442.392C666.557 442.873 667.091 443.158 667.582 443.026C668.074 442.893 668.34 442.394 668.175 441.912L651.976 394.478C651.975 394.477 651.975 394.477 651.975 394.476C651.975 394.476 651.975 394.476 651.975 394.475L649.224 386.422C649.06 385.941 648.526 385.656 648.034 385.788C647.796 385.852 647.604 386.003 647.492 386.213C647.38 386.424 647.362 386.668 647.441 386.901Z" fill="black"/>
<path d="M96.9624 239.383C97.8595 239.142 98.8195 239.257 99.6662 239.708C100.108 239.944 100.491 240.256 100.799 240.625L105.782 239.285C106.24 237.436 107.665 235.9 109.698 235.353L109.698 235.353C111.638 234.832 113.748 235.31 115.343 236.633C115.621 236.863 115.794 237.189 115.822 237.533C115.85 237.878 115.731 238.21 115.491 238.453C114.677 239.278 114.41 240.49 114.794 241.616L119.105 254.238C119.611 255.719 119.498 257.27 118.786 258.604C118.075 259.939 116.851 260.898 115.34 261.304C113.399 261.826 111.29 261.348 109.695 260.025C109.417 259.794 109.244 259.468 109.215 259.124C109.199 258.929 109.231 258.738 109.304 258.565L107.359 259.088L120.395 297.261C120.695 298.14 120.628 299.06 120.206 299.853C119.784 300.645 119.058 301.214 118.161 301.455C117.235 301.704 116.27 301.56 115.458 301.128C114.647 300.695 113.989 299.974 113.679 299.067L94.7281 243.576C94.428 242.697 94.495 241.777 94.917 240.985C95.3392 240.193 96.0655 239.624 96.9624 239.383ZM105.933 242.42C105.876 242.255 105.828 242.089 105.787 241.923L101.857 242.98L102.407 244.59L106.315 243.539L105.933 242.42ZM107.69 247.566L107.14 245.956L103.232 247.007L103.782 248.617L107.69 247.566ZM104.608 251.034L105.158 252.644L109.066 251.594L108.516 249.983L104.608 251.034ZM112.71 254.378C112.974 255.151 113.065 255.946 112.994 256.716C112.992 256.773 112.986 256.829 112.975 256.884C112.894 257.546 112.691 258.187 112.374 258.774C113.058 259.032 113.806 259.078 114.514 258.887C115.367 258.658 116.057 258.117 116.459 257.364C116.86 256.611 116.924 255.736 116.638 254.901L112.328 242.279C111.816 240.781 111.954 239.198 112.664 237.884C111.98 237.626 111.231 237.58 110.524 237.77C108.763 238.243 107.81 240.032 108.399 241.757L110.565 248.097C110.566 248.102 110.568 248.107 110.57 248.112C110.571 248.116 110.573 248.121 110.575 248.126L112.71 254.378ZM110.385 255.636C110.357 255.437 110.31 255.238 110.243 255.041L109.891 254.011L105.983 255.061L106.533 256.671L110.385 255.636ZM97.1948 242.913L116.146 298.404C116.31 298.885 116.844 299.17 117.336 299.038C117.827 298.906 118.093 298.406 117.929 297.924L101.729 250.49C101.729 250.489 101.729 250.489 101.729 250.488C101.729 250.488 101.728 250.488 101.728 250.487L98.9778 242.434C98.8134 241.953 98.2799 241.668 97.7879 241.8C97.5498 241.864 97.357 242.015 97.245 242.225C97.1329 242.436 97.1152 242.68 97.1948 242.913Z" fill="black"/>
<path d="M422.962 441.383C423.86 441.142 424.82 441.257 425.666 441.708C426.108 441.944 426.491 442.256 426.799 442.625L431.782 441.285C432.24 439.436 433.665 437.9 435.698 437.353L435.698 437.353C437.638 436.832 439.748 437.31 441.343 438.633C441.621 438.863 441.794 439.189 441.822 439.533C441.85 439.878 441.731 440.21 441.491 440.453C440.677 441.278 440.41 442.49 440.795 443.616L445.105 456.238C445.611 457.719 445.498 459.27 444.786 460.604C444.075 461.939 442.851 462.898 441.34 463.304C439.4 463.826 437.29 463.348 435.695 462.025C435.417 461.794 435.244 461.468 435.215 461.124C435.199 460.929 435.231 460.738 435.305 460.565L433.359 461.088L446.395 499.261C446.696 500.14 446.629 501.06 446.206 501.853C445.784 502.645 445.058 503.214 444.161 503.455C443.235 503.704 442.27 503.56 441.458 503.128C440.647 502.695 439.989 501.974 439.679 501.067L420.728 445.576C420.428 444.697 420.495 443.777 420.917 442.985C421.339 442.193 422.066 441.624 422.962 441.383ZM431.933 444.42C431.876 444.255 431.828 444.089 431.787 443.923L427.857 444.98L428.407 446.59L432.315 445.539L431.933 444.42ZM433.69 449.566L433.14 447.956L429.233 449.007L429.782 450.617L433.69 449.566ZM430.608 453.034L431.158 454.644L435.066 453.594L434.516 451.983L430.608 453.034ZM438.71 456.378C438.974 457.151 439.065 457.946 438.994 458.716C438.992 458.773 438.986 458.829 438.976 458.884C438.894 459.546 438.691 460.187 438.374 460.774C439.058 461.032 439.806 461.078 440.514 460.887C441.367 460.658 442.057 460.117 442.459 459.364C442.86 458.611 442.924 457.736 442.638 456.901L438.328 444.279C437.816 442.781 437.954 441.198 438.664 439.884C437.98 439.626 437.231 439.58 436.524 439.77C434.763 440.243 433.81 442.032 434.399 443.757L436.565 450.097C436.566 450.102 436.568 450.107 436.57 450.112C436.571 450.116 436.573 450.121 436.575 450.126L438.71 456.378ZM436.386 457.636C436.358 457.437 436.31 457.238 436.243 457.041L435.891 456.011L431.983 457.061L432.533 458.671L436.386 457.636ZM423.195 444.913L442.146 500.404C442.31 500.885 442.844 501.17 443.336 501.038C443.827 500.906 444.093 500.406 443.929 499.924L427.729 452.49C427.729 452.489 427.729 452.489 427.729 452.488C427.729 452.488 427.728 452.488 427.728 452.487L424.978 444.434C424.813 443.953 424.28 443.668 423.788 443.8C423.55 443.864 423.357 444.015 423.245 444.225C423.133 444.436 423.115 444.68 423.195 444.913Z" fill="black"/>
<path d="M397.393 288.134C398.202 287.678 399.161 287.553 400.093 287.781C400.579 287.899 401.027 288.107 401.417 288.389L405.914 285.858C405.9 283.953 406.902 282.112 408.736 281.08L408.736 281.08C410.487 280.095 412.65 280.036 414.522 280.924C414.849 281.079 415.097 281.351 415.21 281.678C415.322 282.005 415.288 282.356 415.116 282.651C414.531 283.651 414.572 284.892 415.223 285.888L422.521 297.052C423.377 298.362 423.651 299.892 423.292 301.362C422.933 302.831 421.984 304.063 420.62 304.83C418.869 305.815 416.707 305.874 414.834 304.986C414.508 304.831 414.259 304.559 414.147 304.232C414.083 304.047 414.066 303.854 414.095 303.668L412.339 304.656L434.41 338.42C434.918 339.198 435.081 340.106 434.868 340.978C434.655 341.849 434.092 342.58 433.282 343.036C432.447 343.506 431.476 343.606 430.582 343.387C429.689 343.169 428.874 342.633 428.349 341.83L396.265 292.75C395.757 291.972 395.594 291.064 395.807 290.192C396.02 289.32 396.583 288.589 397.393 288.134ZM406.835 288.858C406.74 288.712 406.652 288.563 406.571 288.413L403.025 290.408L403.956 291.832L407.483 289.848L406.835 288.858ZM409.811 293.41L408.88 291.986L405.353 293.97L406.284 295.394L409.811 293.41ZM407.682 297.532L408.613 298.957L412.139 296.972L411.209 295.548L407.682 297.532ZM416.359 298.769C416.806 299.453 417.091 300.201 417.212 300.964C417.224 301.02 417.232 301.076 417.236 301.132C417.321 301.794 417.282 302.464 417.121 303.111C417.847 303.192 418.583 303.052 419.222 302.692C419.992 302.259 420.527 301.564 420.73 300.735C420.932 299.907 420.778 299.043 420.295 298.304L412.997 287.141C412.131 285.815 411.873 284.248 412.236 282.799C411.509 282.718 410.773 282.858 410.134 283.218C408.545 284.111 408.064 286.08 409.061 287.606L412.727 293.214C412.73 293.218 412.733 293.222 412.736 293.227C412.739 293.231 412.741 293.235 412.744 293.24L416.359 298.769ZM414.418 300.563C414.342 300.377 414.246 300.195 414.133 300.022L413.537 299.11L410.01 301.095L410.941 302.519L414.418 300.563ZM398.491 291.497L430.575 340.578C430.854 341.004 431.441 341.147 431.885 340.898C432.328 340.648 432.463 340.099 432.184 339.672L404.758 297.717C404.758 297.717 404.757 297.716 404.757 297.716C404.757 297.715 404.757 297.715 404.756 297.715L400.1 290.592C399.822 290.166 399.234 290.022 398.79 290.272C398.575 290.393 398.426 290.587 398.369 290.818C398.313 291.05 398.356 291.291 398.491 291.497Z" fill="black"/>
<path d="M319.186 151.153C318.444 150.594 317.51 150.342 316.556 150.444C316.059 150.498 315.587 150.644 315.163 150.871L311.042 147.766C311.309 145.879 310.561 143.922 308.88 142.655L308.879 142.655C307.275 141.446 305.139 141.101 303.166 141.732C302.821 141.843 302.539 142.08 302.384 142.389C302.229 142.697 302.216 143.051 302.348 143.365C302.795 144.435 302.589 145.659 301.811 146.56L293.096 156.655C292.073 157.84 291.599 159.321 291.759 160.825C291.92 162.329 292.697 163.675 293.947 164.617C295.552 165.826 297.687 166.171 299.661 165.54C300.005 165.43 300.288 165.193 300.443 164.884C300.53 164.709 300.572 164.52 300.569 164.332L302.178 165.545L275.819 196.079C275.212 196.782 274.93 197.66 275.026 198.553C275.121 199.445 275.582 200.244 276.324 200.803C277.09 201.38 278.039 201.608 278.953 201.51C279.868 201.413 280.747 200.989 281.374 200.264L319.691 155.878C320.298 155.175 320.58 154.296 320.484 153.404C320.389 152.511 319.928 151.712 319.186 151.153ZM309.731 150.617C309.845 150.485 309.952 150.349 310.051 150.211L313.302 152.66L312.19 153.948L308.958 151.513L309.731 150.617ZM306.177 154.734L307.289 153.446L310.521 155.881L309.409 157.169L306.177 154.734ZM307.74 159.102L306.628 160.39L303.396 157.955L304.508 156.667L307.74 159.102ZM298.975 159.176C298.442 159.794 298.06 160.498 297.838 161.238C297.819 161.291 297.803 161.346 297.792 161.401C297.621 162.046 297.569 162.716 297.644 163.378C296.913 163.362 296.202 163.125 295.616 162.684C294.911 162.153 294.473 161.393 294.382 160.544C294.291 159.696 294.559 158.861 295.136 158.192L303.851 148.097C304.886 146.898 305.35 145.378 305.183 143.894C305.914 143.91 306.625 144.147 307.21 144.589C308.666 145.685 308.882 147.7 307.691 149.08L303.312 154.152C303.309 154.156 303.306 154.16 303.302 154.163C303.299 154.167 303.296 154.171 303.292 154.175L298.975 159.176ZM300.661 161.211C300.761 161.037 300.88 160.87 301.015 160.713L301.727 159.889L304.959 162.324L303.847 163.612L300.661 161.211ZM317.651 154.341L279.333 198.727C279.001 199.112 278.4 199.176 277.993 198.87C277.586 198.564 277.526 198.001 277.859 197.616L310.613 159.673C310.614 159.673 310.614 159.673 310.614 159.672C310.615 159.672 310.615 159.672 310.615 159.671L316.176 153.23C316.509 152.845 317.11 152.78 317.517 153.086C317.714 153.235 317.836 153.447 317.861 153.684C317.887 153.921 317.812 154.154 317.651 154.341Z" fill="black"/>
<path d="M447.362 223.739C446.62 224.298 445.686 224.55 444.732 224.448C444.235 224.394 443.763 224.248 443.339 224.021L439.218 227.126C439.485 229.013 438.737 230.97 437.056 232.237L437.055 232.237C435.451 233.446 433.315 233.791 431.342 233.16C430.997 233.049 430.715 232.812 430.56 232.503C430.405 232.195 430.392 231.842 430.524 231.527C430.971 230.457 430.765 229.233 429.987 228.332L421.272 218.237C420.249 217.052 419.775 215.571 419.935 214.067C420.096 212.564 420.873 211.217 422.123 210.275C423.728 209.066 425.863 208.721 427.837 209.352C428.181 209.462 428.464 209.699 428.619 210.008C428.706 210.183 428.748 210.372 428.745 210.56L430.354 209.347L403.995 178.813C403.388 178.11 403.106 177.232 403.202 176.339C403.297 175.447 403.758 174.648 404.5 174.089C405.266 173.512 406.215 173.284 407.129 173.382C408.044 173.479 408.923 173.903 409.55 174.628L447.867 219.014C448.474 219.718 448.756 220.596 448.66 221.488C448.565 222.381 448.104 223.18 447.362 223.739ZM437.907 224.275C438.021 224.407 438.128 224.543 438.227 224.681L441.478 222.232L440.366 220.945L437.134 223.379L437.907 224.275ZM434.353 220.158L435.465 221.446L438.697 219.011L437.585 217.723L434.353 220.158ZM435.916 215.79L434.804 214.502L431.572 216.937L432.684 218.225L435.916 215.79ZM427.152 215.716C426.618 215.098 426.236 214.394 426.014 213.654C425.995 213.601 425.979 213.546 425.968 213.491C425.797 212.846 425.745 212.176 425.82 211.514C425.089 211.53 424.378 211.767 423.793 212.208C423.087 212.74 422.649 213.499 422.558 214.348C422.467 215.196 422.735 216.031 423.312 216.7L432.027 226.795C433.062 227.994 433.526 229.514 433.359 230.998C434.09 230.982 434.801 230.745 435.386 230.304C436.842 229.207 437.058 227.192 435.867 225.812L431.488 220.74C431.485 220.736 431.482 220.732 431.478 220.729C431.475 220.725 431.472 220.721 431.468 220.717L427.152 215.716ZM428.837 213.681C428.937 213.855 429.056 214.022 429.191 214.179L429.903 215.003L433.135 212.568L432.023 211.28L428.837 213.681ZM445.827 220.551L407.51 176.165C407.177 175.78 406.576 175.716 406.169 176.022C405.762 176.328 405.702 176.891 406.035 177.276L438.789 215.219C438.79 215.219 438.79 215.219 438.79 215.22C438.791 215.22 438.791 215.22 438.791 215.221L444.352 221.662C444.685 222.047 445.286 222.112 445.693 221.806C445.89 221.657 446.012 221.445 446.037 221.208C446.063 220.971 445.988 220.738 445.827 220.551Z" fill="black"/>
<path d="M104.1 149.251C104.317 147.835 104.982 146.535 105.993 145.382C107.025 144.206 108.419 143.185 110.06 142.361C110.961 141.909 111.674 141.569 112.258 141.291C113.363 140.766 113.959 140.486 114.384 140.105C114.898 139.648 115.343 138.905 116.313 137.3C116.613 136.8 116.942 136.254 116.974 136.201C117.817 134.818 118.785 133.639 119.836 132.732C120.899 131.816 122.042 131.171 123.224 130.863C124.906 130.426 126.254 130.653 127.392 131.262C128.479 131.84 129.349 132.758 130.143 133.765C131.289 135.217 132.217 136.811 132.923 138.548C133.599 140.21 134.074 142 134.351 143.919C136.715 145.738 138.589 147.6 140.074 149.398C141.609 151.253 142.735 153.03 143.562 154.613C144.472 156.345 144.937 157.898 144.874 158.973C144.838 159.587 144.639 160.098 144.265 160.473C143.868 160.87 143.336 161.068 142.666 161.022C141.727 160.958 140.394 160.362 138.634 159.065C138.146 158.706 137.657 158.267 137.445 158.077L137.383 158.024L137.254 157.912C134.078 155.099 130.952 152.33 127.7 155.19C126.432 156.869 126.176 158.214 126.545 159.534C126.95 160.978 128.089 162.484 129.488 164.319L129.494 164.326C129.689 164.58 130.343 165.437 130.753 166.121C131.89 168.017 132.344 169.425 132.298 170.376C132.263 171.039 132.011 171.544 131.575 171.898C131.166 172.233 130.638 172.383 130.027 172.356C128.95 172.311 127.464 171.683 125.853 170.547C124.524 169.608 122.912 168.227 121.084 166.4C119.473 164.788 117.693 162.825 115.792 160.51C114.268 159.924 112.798 159.277 111.409 158.536C109.974 157.769 108.621 156.9 107.382 155.888C106.348 155.04 105.424 154.243 104.805 153.241C104.152 152.18 103.845 150.935 104.1 149.251ZM107.056 146.24C106.263 147.145 105.743 148.154 105.579 149.243C105.381 150.553 105.617 151.518 106.116 152.328C106.65 153.192 107.49 153.918 108.44 154.692C109.606 155.644 110.893 156.472 112.273 157.208C113.654 157.947 115.127 158.587 116.663 159.175C116.758 159.212 116.844 159.272 116.912 159.352C118.824 161.69 120.615 163.666 122.235 165.283C124.001 167.052 125.562 168.386 126.852 169.296C128.268 170.295 129.504 170.844 130.326 170.879C130.532 170.888 130.676 170.869 130.738 170.817C130.777 170.786 130.801 170.692 130.812 170.524C130.848 169.821 130.444 168.663 129.444 166.999C129.074 166.381 128.443 165.555 128.256 165.31L128.25 165.304C126.774 163.372 125.577 161.785 125.106 160.108C124.607 158.323 124.934 156.534 126.609 154.348L126.611 154.351C126.644 154.309 126.682 154.267 126.724 154.229C131.078 150.296 134.687 153.493 138.353 156.741L138.479 156.855L138.481 156.857L138.545 156.913C138.735 157.082 139.172 157.475 139.655 157.83C141.213 158.98 142.31 159.501 143.005 159.549C143.168 159.561 143.262 159.55 143.291 159.519C143.347 159.465 143.377 159.325 143.389 159.116C143.435 158.282 143.022 156.97 142.213 155.435C141.41 153.907 140.331 152.197 138.863 150.423C137.39 148.643 135.524 146.794 133.146 144.988C133.017 144.897 132.928 144.755 132.905 144.577C132.65 142.666 132.189 140.896 131.525 139.259C130.861 137.626 129.992 136.129 128.915 134.77C128.205 133.873 127.443 133.06 126.531 132.576C125.675 132.118 124.661 131.948 123.393 132.281C122.474 132.518 121.572 133.032 120.724 133.764C119.821 134.546 118.976 135.578 118.229 136.803C117.773 137.556 117.663 137.734 117.568 137.892C116.503 139.66 116.009 140.476 115.295 141.116C114.666 141.676 113.989 141.996 112.731 142.594C112.157 142.867 111.452 143.2 110.565 143.647C109.134 144.368 107.932 145.244 107.056 146.24Z" fill="black"/>
<path d="M612.148 250.897C613.577 250.809 614.989 251.184 616.329 251.928C617.698 252.688 618.99 253.835 620.143 255.265C620.775 256.05 621.258 256.674 621.653 257.187C622.4 258.155 622.8 258.679 623.263 259.013C623.817 259.419 624.638 259.697 626.412 260.305C626.964 260.492 627.567 260.698 627.626 260.719C629.156 261.25 630.513 261.946 631.622 262.782C632.742 263.626 633.615 264.608 634.166 265.698C634.948 267.249 635.012 268.615 634.657 269.856C634.322 271.04 633.609 272.085 632.793 273.074C631.617 274.501 630.255 275.745 628.707 276.803C627.226 277.815 625.576 278.658 623.759 279.335C622.482 282.031 621.058 284.256 619.615 286.088C618.127 287.981 616.629 289.457 615.257 290.601C613.756 291.856 612.337 292.639 611.273 292.805C610.665 292.9 610.123 292.813 609.677 292.527C609.206 292.223 608.9 291.745 608.803 291.08C608.667 290.149 608.967 288.72 609.862 286.726C610.11 286.173 610.436 285.602 610.576 285.354L610.616 285.282L610.697 285.133C612.775 281.434 614.819 277.792 611.336 275.219C609.427 274.335 608.058 274.37 606.847 275.009C605.521 275.711 604.289 277.143 602.792 278.898L602.787 278.906C602.58 279.15 601.881 279.971 601.299 280.516C599.687 282.029 598.406 282.77 597.467 282.926C596.812 283.032 596.264 282.893 595.827 282.542C595.413 282.213 595.154 281.728 595.051 281.126C594.867 280.064 595.167 278.478 595.936 276.664C596.573 275.166 597.581 273.298 598.98 271.125C600.215 269.209 601.757 267.055 603.617 264.707C603.868 263.093 604.189 261.519 604.619 260.006C605.065 258.44 605.629 256.934 606.356 255.509C606.965 254.319 607.549 253.248 608.397 252.43C609.296 251.568 610.447 251.004 612.148 250.897ZM615.715 253.149C614.663 252.566 613.567 252.27 612.468 252.341C611.146 252.425 610.253 252.859 609.567 253.519C608.835 254.223 608.303 255.198 607.748 256.29C607.064 257.631 606.527 259.064 606.1 260.568C605.67 262.075 605.356 263.65 605.106 265.276C605.09 265.376 605.05 265.473 604.986 265.556C603.105 267.919 601.553 270.088 600.316 272.014C598.961 274.114 597.987 275.922 597.37 277.375C596.694 278.97 596.418 280.294 596.558 281.105C596.593 281.309 596.642 281.445 596.706 281.495C596.744 281.527 596.842 281.53 597.008 281.505C597.703 281.392 598.749 280.752 600.164 279.423C600.69 278.93 601.363 278.139 601.563 277.904L601.568 277.897C603.143 276.045 604.442 274.54 605.98 273.725C607.62 272.86 609.438 272.8 611.928 273.975L611.926 273.977C611.974 274.001 612.024 274.029 612.069 274.062C616.834 277.485 614.473 281.69 612.074 285.959L611.99 286.106L611.988 286.109L611.947 286.183C611.822 286.404 611.531 286.915 611.286 287.463C610.491 289.228 610.214 290.41 610.315 291.1C610.337 291.262 610.368 291.351 610.404 291.373C610.469 291.416 610.612 291.416 610.819 291.384C611.644 291.253 612.838 290.571 614.167 289.455C615.491 288.347 616.934 286.931 618.357 285.122C619.785 283.305 621.197 281.09 622.46 278.384C622.522 278.239 622.642 278.121 622.811 278.061C624.624 277.408 626.256 276.582 627.716 275.587C629.171 274.593 630.45 273.426 631.551 272.086C632.277 271.203 632.911 270.286 633.191 269.292C633.457 268.359 633.409 267.332 632.816 266.163C632.39 265.315 631.696 264.542 630.801 263.868C629.846 263.151 628.658 262.544 627.303 262.072C626.471 261.786 626.273 261.717 626.099 261.657C624.145 260.99 623.244 260.68 622.467 260.118C621.787 259.621 621.33 259.027 620.48 257.924C620.092 257.421 619.617 256.802 618.993 256.03C617.985 254.784 616.875 253.795 615.715 253.149Z" fill="black"/>
<path d="M397.737 395.793C398.844 394.884 400.207 394.36 401.729 394.177C403.283 393.99 405.003 394.162 406.775 394.643C407.748 394.908 408.505 395.131 409.125 395.315C410.299 395.661 410.929 395.851 411.5 395.851C412.187 395.854 413.015 395.598 414.809 395.05C415.365 394.878 415.975 394.692 416.035 394.674C417.585 394.207 419.093 393.975 420.482 394.002C421.884 394.029 423.166 394.312 424.252 394.872C425.795 395.67 426.648 396.739 427.088 397.952C427.511 399.108 427.546 400.373 427.465 401.652C427.349 403.498 426.975 405.304 426.341 407.069C425.735 408.758 424.893 410.407 423.818 412.021C424.364 414.954 424.516 417.591 424.421 419.921C424.326 422.327 423.977 424.401 423.536 426.132C423.057 428.029 422.367 429.495 421.602 430.254C421.165 430.688 420.675 430.934 420.147 430.965C419.587 430.995 419.058 430.787 418.589 430.305C417.934 429.631 417.339 428.297 416.895 426.156C416.771 425.563 416.701 424.91 416.669 424.627L416.659 424.546L416.637 424.377C416.151 420.162 415.672 416.013 411.342 415.971C409.277 416.375 408.188 417.206 407.582 418.434C406.92 419.78 406.761 421.661 406.578 423.962V423.971C406.553 424.29 406.469 425.365 406.317 426.147C405.898 428.318 405.295 429.67 404.626 430.347C404.157 430.817 403.632 431.025 403.072 430.998C402.543 430.974 402.05 430.733 401.613 430.305C400.842 429.553 400.154 428.092 399.714 426.172C399.351 424.585 399.073 422.48 398.932 419.9C398.808 417.624 398.794 414.975 398.925 411.982C398.181 410.528 397.519 409.065 396.98 407.586C396.423 406.057 395.997 404.506 395.75 402.926C395.546 401.604 395.391 400.394 395.599 399.235C395.821 398.009 396.423 396.877 397.737 395.793ZM401.948 395.526C400.753 395.67 399.693 396.073 398.844 396.775C397.822 397.618 397.353 398.494 397.184 399.43C397.004 400.43 397.145 401.532 397.336 402.742C397.568 404.229 397.973 405.705 398.509 407.174C399.045 408.646 399.714 410.106 400.464 411.57C400.51 411.66 400.535 411.762 400.531 411.868C400.394 414.884 400.408 417.552 400.535 419.837C400.669 422.333 400.94 424.368 401.293 425.907C401.68 427.596 402.233 428.83 402.822 429.405C402.97 429.55 403.09 429.631 403.171 429.634C403.22 429.637 403.301 429.583 403.421 429.465C403.918 428.965 404.39 427.833 404.756 425.928C404.894 425.22 404.975 424.184 404.999 423.877V423.868C405.19 421.445 405.359 419.464 406.127 417.901C406.948 416.239 408.385 415.125 411.091 414.616V414.619C411.144 414.61 411.201 414.604 411.257 414.604C417.124 414.583 417.677 419.373 418.237 424.239L418.255 424.407V424.41L418.265 424.495C418.293 424.747 418.357 425.332 418.48 425.919C418.871 427.815 419.34 428.935 419.826 429.435C419.939 429.553 420.016 429.607 420.059 429.604C420.136 429.601 420.253 429.516 420.4 429.369C420.992 428.779 421.56 427.526 421.983 425.843C422.405 424.169 422.744 422.176 422.835 419.876C422.927 417.567 422.772 414.945 422.208 412.012C422.173 411.859 422.201 411.693 422.303 411.546C423.388 409.953 424.227 408.327 424.826 406.665C425.421 405.006 425.774 403.311 425.88 401.58C425.95 400.439 425.925 399.325 425.569 398.356C425.238 397.443 424.597 396.64 423.431 396.04C422.589 395.604 421.574 395.384 420.453 395.363C419.259 395.342 417.941 395.547 416.567 395.959C415.725 396.215 415.524 396.275 415.348 396.329C413.375 396.935 412.462 397.212 411.504 397.212C410.662 397.209 409.943 396.995 408.607 396.6C407.998 396.42 407.251 396.197 406.292 395.938C404.746 395.52 403.266 395.369 401.948 395.526Z" fill="black"/>
<path d="M485.463 314.594C485.127 313.201 485.251 311.746 485.75 310.296C486.26 308.816 487.165 307.344 488.371 305.96C489.034 305.2 489.565 304.616 490.001 304.138C490.824 303.233 491.27 302.749 491.519 302.235C491.822 301.618 491.953 300.761 492.242 298.909C492.331 298.333 492.429 297.703 492.439 297.641C492.696 296.043 493.145 294.584 493.775 293.347C494.411 292.097 495.226 291.067 496.203 290.334C497.594 289.294 498.928 288.993 500.212 289.126C501.437 289.25 502.59 289.77 503.706 290.402C505.316 291.312 506.778 292.436 508.089 293.776C509.344 295.059 510.461 296.536 511.444 298.207C514.321 298.995 516.76 300.01 518.815 301.112C520.938 302.248 522.653 303.467 524.018 304.618C525.516 305.877 526.534 307.138 526.883 308.157C527.082 308.74 527.091 309.288 526.887 309.777C526.67 310.294 526.252 310.679 525.614 310.89C524.721 311.186 523.262 311.14 521.142 310.605C520.554 310.457 519.936 310.236 519.667 310.141L519.589 310.115L519.428 310.06C515.424 308.658 511.482 307.279 509.554 311.157C509.016 313.191 509.289 314.533 510.13 315.615C511.052 316.798 512.675 317.762 514.665 318.93L514.673 318.934C514.95 319.096 515.88 319.641 516.518 320.119C518.288 321.443 519.242 322.575 519.559 323.473C519.777 324.1 519.735 324.663 519.466 325.155C519.214 325.62 518.782 325.959 518.207 326.165C517.193 326.531 515.579 326.512 513.659 326.07C512.073 325.705 510.058 325.037 507.674 324.038C505.573 323.155 503.183 322.012 500.547 320.589C498.914 320.623 497.308 320.581 495.743 320.421C494.124 320.255 492.543 319.962 491.013 319.494C489.735 319.101 488.578 318.712 487.626 318.02C486.62 317.285 485.864 316.249 485.463 314.594ZM487.059 310.688C486.668 311.826 486.568 312.956 486.828 314.026C487.141 315.314 487.725 316.118 488.494 316.678C489.315 317.276 490.368 317.63 491.54 317.987C492.979 318.427 494.483 318.706 496.039 318.865C497.598 319.026 499.203 319.06 500.848 319.024C500.949 319.022 501.052 319.044 501.145 319.093C503.799 320.533 506.206 321.685 508.317 322.568C510.621 323.536 512.571 324.18 514.109 324.534C515.798 324.923 517.15 324.964 517.924 324.685C518.119 324.615 518.244 324.543 518.282 324.471C518.306 324.428 518.293 324.331 518.24 324.172C518.007 323.507 517.194 322.588 515.639 321.427C515.063 320.995 514.166 320.47 513.901 320.314L513.892 320.31C511.795 319.081 510.086 318.064 509.015 316.691C507.878 315.228 507.503 313.448 508.226 310.791L508.229 310.792C508.244 310.741 508.263 310.688 508.287 310.637C510.828 305.349 515.38 306.941 520.002 308.56L520.161 308.618L520.164 308.619L520.244 308.647C520.484 308.732 521.038 308.929 521.62 309.075C523.497 309.55 524.709 309.617 525.371 309.398C525.526 309.348 525.608 309.302 525.624 309.262C525.655 309.191 525.63 309.05 525.562 308.852C525.289 308.062 524.41 307.005 523.08 305.89C521.758 304.779 520.113 303.605 518.083 302.519C516.045 301.429 513.618 300.425 510.733 299.652C510.58 299.617 510.443 299.519 510.355 299.363C509.396 297.692 508.299 296.228 507.065 294.964C505.832 293.704 504.461 292.647 502.949 291.797C501.953 291.235 500.94 290.772 499.912 290.669C498.947 290.569 497.944 290.795 496.896 291.583C496.136 292.15 495.495 292.967 494.987 293.966C494.447 295.032 494.056 296.307 493.828 297.723C493.691 298.593 493.657 298.8 493.629 298.982C493.313 301.021 493.164 301.963 492.745 302.826C492.375 303.582 491.869 304.136 490.932 305.165C490.503 305.635 489.977 306.21 489.326 306.959C488.274 308.168 487.493 309.434 487.059 310.688Z" fill="black"/>
<path d="M332.581 322.147C333.925 322.642 335.066 323.554 335.994 324.774C336.941 326.02 337.663 327.59 338.143 329.363C338.407 330.336 338.597 331.102 338.753 331.73C339.047 332.917 339.203 333.557 339.491 334.05C339.836 334.644 340.476 335.229 341.855 336.499C342.285 336.893 342.754 337.324 342.8 337.367C343.986 338.468 344.949 339.652 345.628 340.863C346.313 342.087 346.718 343.337 346.784 344.556C346.876 346.291 346.385 347.567 345.561 348.56C344.777 349.51 343.704 350.18 342.559 350.757C340.908 351.59 339.161 352.181 337.318 352.526C335.555 352.857 333.705 352.965 331.77 352.854C329.516 354.808 327.317 356.272 325.259 357.369C323.135 358.503 321.169 359.251 319.453 359.747C317.574 360.292 315.96 360.438 314.919 360.162C314.324 360.004 313.864 359.707 313.57 359.266C313.261 358.798 313.173 358.237 313.352 357.589C313.602 356.682 314.451 355.494 316.074 354.029C316.523 353.622 317.051 353.231 317.279 353.061L317.344 353.011L317.479 352.907C320.869 350.356 324.206 347.845 322.053 344.088C320.66 342.51 319.393 341.991 318.027 342.089C316.531 342.199 314.827 343.013 312.75 344.018L312.742 344.023C312.455 344.163 311.485 344.634 310.733 344.899C308.648 345.635 307.177 345.798 306.254 345.563C305.612 345.397 305.167 345.049 304.907 344.552C304.661 344.084 304.619 343.536 304.767 342.943C305.026 341.897 305.938 340.566 307.373 339.214C308.558 338.099 310.233 336.795 312.388 335.368C314.289 334.111 316.567 332.759 319.215 331.358C320.094 329.981 321.021 328.67 322.024 327.457C323.062 326.204 324.184 325.052 325.423 324.04C326.46 323.195 327.425 322.449 328.531 322.042C329.7 321.614 330.981 321.562 332.581 322.147ZM334.941 325.644C334.213 324.687 333.328 323.976 332.294 323.598C331.05 323.143 330.057 323.182 329.164 323.509C328.21 323.86 327.331 324.538 326.383 325.315C325.217 326.267 324.15 327.363 323.153 328.568C322.154 329.774 321.232 331.09 320.35 332.478C320.295 332.563 320.219 332.636 320.126 332.686C317.454 334.093 315.16 335.454 313.253 336.719C311.167 338.097 309.549 339.36 308.4 340.442C307.138 341.631 306.353 342.732 306.155 343.531C306.105 343.731 306.095 343.876 306.134 343.947C306.156 343.991 306.244 344.034 306.406 344.078C307.088 344.254 308.303 344.089 310.133 343.441C310.813 343.202 311.747 342.748 312.025 342.614L312.032 342.609C314.22 341.548 316.014 340.692 317.751 340.565C319.6 340.432 321.288 341.109 323.095 343.187L323.092 343.188C323.127 343.229 323.161 343.275 323.189 343.323C326.174 348.374 322.321 351.273 318.407 354.217L318.271 354.318L318.268 354.319L318.201 354.371C317.997 354.523 317.525 354.873 317.081 355.276C315.642 356.573 314.913 357.544 314.728 358.216C314.683 358.372 314.676 358.467 314.7 358.502C314.742 358.567 314.873 358.625 315.075 358.678C315.884 358.89 317.251 358.746 318.917 358.26C320.575 357.778 322.465 357.062 324.496 355.978C326.534 354.889 328.718 353.429 330.963 351.46C331.078 351.352 331.235 351.293 331.414 351.306C333.337 351.437 335.163 351.339 336.9 351.015C338.632 350.69 340.273 350.137 341.82 349.352C342.84 348.836 343.788 348.252 344.445 347.454C345.064 346.707 345.434 345.748 345.361 344.438C345.311 343.491 344.988 342.505 344.439 341.527C343.854 340.486 343.011 339.453 341.96 338.476C341.313 337.879 341.16 337.736 341.024 337.611C339.504 336.215 338.804 335.568 338.319 334.741C337.896 334.013 337.717 333.285 337.382 331.933C337.229 331.316 337.044 330.559 336.782 329.601C336.361 328.055 335.743 326.702 334.941 325.644Z" fill="black"/>
<path d="M349.005 444.837C350.349 445.332 351.49 446.243 352.418 447.464C353.365 448.71 354.087 450.28 354.567 452.053C354.83 453.026 355.021 453.792 355.176 454.42C355.471 455.607 355.626 456.247 355.915 456.739C356.26 457.334 356.899 457.919 358.279 459.189C358.709 459.582 359.178 460.014 359.224 460.056C360.41 461.158 361.373 462.342 362.052 463.553C362.737 464.777 363.142 466.026 363.207 467.246C363.299 468.981 362.809 470.257 361.985 471.25C361.201 472.2 360.128 472.869 358.983 473.447C357.332 474.28 355.585 474.871 353.742 475.216C351.978 475.547 350.129 475.655 348.193 475.544C345.94 477.498 343.741 478.962 341.683 480.058C339.559 481.193 337.593 481.941 335.877 482.436C333.998 482.982 332.384 483.128 331.343 482.852C330.748 482.694 330.287 482.396 329.994 481.956C329.685 481.488 329.597 480.926 329.775 480.279C330.026 479.372 330.875 478.184 332.498 476.719C332.947 476.312 333.475 475.921 333.703 475.751L333.768 475.7L333.903 475.597C337.293 473.046 340.63 470.535 338.476 466.777C337.084 465.2 335.817 464.681 334.451 464.779C332.955 464.888 331.251 465.703 329.174 466.708L329.166 466.713C328.878 466.853 327.908 467.323 327.156 467.588C325.072 468.324 323.601 468.488 322.678 468.253C322.036 468.086 321.591 467.739 321.331 467.242C321.085 466.773 321.043 466.226 321.191 465.633C321.45 464.587 322.362 463.255 323.797 461.904C324.982 460.789 326.657 459.484 328.811 458.058C330.713 456.801 332.991 455.449 335.639 454.048C336.518 452.671 337.445 451.36 338.448 450.147C339.486 448.893 340.608 447.741 341.847 446.729C342.883 445.885 343.849 445.139 344.954 444.732C346.124 444.304 347.405 444.251 349.005 444.837ZM351.365 448.334C350.636 447.377 349.752 446.666 348.717 446.288C347.473 445.833 346.481 445.871 345.587 446.199C344.634 446.549 343.755 447.228 342.807 448.004C341.641 448.957 340.573 450.053 339.577 451.258C338.577 452.464 337.656 453.78 336.773 455.168C336.719 455.253 336.643 455.326 336.55 455.376C333.878 456.783 331.584 458.144 329.677 459.409C327.591 460.787 325.972 462.05 324.823 463.132C323.562 464.32 322.777 465.422 322.579 466.22C322.529 466.421 322.519 466.566 322.558 466.637C322.58 466.681 322.668 466.724 322.829 466.768C323.512 466.943 324.727 466.778 326.557 466.131C327.237 465.891 328.171 465.438 328.448 465.304L328.456 465.299C330.643 464.238 332.438 463.382 334.174 463.254C336.023 463.122 337.711 463.799 339.519 465.876L339.516 465.878C339.551 465.919 339.584 465.965 339.613 466.013C342.598 471.064 338.745 473.963 334.831 476.907L334.694 477.007L334.692 477.009L334.624 477.061C334.42 477.213 333.949 477.563 333.505 477.966C332.066 479.263 331.337 480.233 331.151 480.906C331.107 481.062 331.1 481.157 331.124 481.191C331.165 481.257 331.297 481.315 331.499 481.368C332.307 481.58 333.675 481.436 335.341 480.95C336.998 480.468 338.889 479.752 340.92 478.668C342.958 477.579 345.142 476.119 347.387 474.15C347.502 474.042 347.659 473.983 347.838 473.996C349.761 474.127 351.587 474.028 353.324 473.705C355.056 473.38 356.697 472.826 358.244 472.042C359.264 471.526 360.212 470.941 360.869 470.144C361.488 469.397 361.857 468.437 361.784 467.128C361.735 466.181 361.412 465.194 360.863 464.217C360.277 463.176 359.434 462.142 358.384 461.166C357.737 460.568 357.584 460.426 357.448 460.301C355.928 458.905 355.227 458.257 354.743 457.431C354.319 456.703 354.14 455.974 353.805 454.623C353.653 454.006 353.467 453.249 353.206 452.291C352.785 450.745 352.167 449.392 351.365 448.334Z" fill="black"/>
<path d="M327.737 236.793C328.844 235.884 330.207 235.36 331.729 235.177C333.283 234.99 335.003 235.162 336.775 235.643C337.748 235.908 338.505 236.131 339.125 236.315C340.299 236.661 340.929 236.851 341.5 236.851C342.187 236.854 343.015 236.598 344.809 236.05C345.365 235.878 345.975 235.692 346.035 235.674C347.585 235.207 349.093 234.975 350.482 235.002C351.884 235.029 353.166 235.312 354.252 235.872C355.795 236.67 356.648 237.739 357.088 238.952C357.511 240.108 357.546 241.373 357.465 242.652C357.349 244.498 356.975 246.304 356.341 248.069C355.735 249.758 354.893 251.407 353.818 253.021C354.364 255.954 354.516 258.591 354.421 260.921C354.326 263.327 353.977 265.401 353.536 267.132C353.057 269.029 352.367 270.495 351.602 271.254C351.165 271.688 350.675 271.934 350.147 271.965C349.587 271.995 349.058 271.787 348.589 271.305C347.934 270.631 347.339 269.297 346.895 267.156C346.771 266.563 346.701 265.91 346.669 265.627L346.659 265.546L346.637 265.377C346.151 261.162 345.672 257.013 341.342 256.971C339.277 257.375 338.188 258.206 337.582 259.434C336.92 260.78 336.761 262.661 336.578 264.962V264.971C336.553 265.29 336.469 266.365 336.317 267.147C335.898 269.318 335.295 270.67 334.626 271.347C334.157 271.817 333.632 272.025 333.072 271.998C332.543 271.974 332.05 271.733 331.613 271.305C330.842 270.553 330.154 269.092 329.714 267.172C329.351 265.585 329.073 263.48 328.932 260.9C328.808 258.624 328.794 255.975 328.925 252.982C328.181 251.528 327.519 250.065 326.98 248.586C326.423 247.057 325.997 245.506 325.75 243.926C325.546 242.604 325.391 241.394 325.599 240.235C325.821 239.009 326.423 237.877 327.737 236.793ZM331.948 236.526C330.753 236.67 329.693 237.073 328.844 237.775C327.822 238.618 327.353 239.494 327.184 240.43C327.004 241.43 327.145 242.532 327.336 243.742C327.568 245.229 327.973 246.705 328.509 248.174C329.045 249.646 329.714 251.106 330.464 252.57C330.51 252.66 330.535 252.762 330.531 252.868C330.394 255.884 330.408 258.552 330.535 260.837C330.669 263.333 330.94 265.368 331.293 266.907C331.68 268.596 332.233 269.83 332.822 270.405C332.97 270.55 333.09 270.631 333.171 270.634C333.22 270.637 333.301 270.583 333.421 270.465C333.918 269.965 334.39 268.833 334.756 266.928C334.894 266.22 334.975 265.184 334.999 264.877V264.868C335.19 262.445 335.359 260.464 336.127 258.901C336.948 257.239 338.385 256.125 341.091 255.616V255.619C341.144 255.61 341.201 255.604 341.257 255.604C347.124 255.583 347.677 260.373 348.237 265.239L348.255 265.407V265.41L348.265 265.495C348.293 265.747 348.357 266.332 348.48 266.919C348.871 268.815 349.34 269.935 349.826 270.435C349.939 270.553 350.016 270.607 350.059 270.604C350.136 270.601 350.253 270.516 350.4 270.369C350.992 269.779 351.56 268.526 351.983 266.843C352.405 265.169 352.744 263.176 352.835 260.876C352.927 258.567 352.772 255.945 352.208 253.012C352.173 252.859 352.201 252.693 352.303 252.546C353.388 250.953 354.227 249.327 354.826 247.665C355.421 246.006 355.774 244.311 355.88 242.58C355.95 241.439 355.925 240.325 355.569 239.356C355.238 238.443 354.597 237.64 353.431 237.04C352.589 236.604 351.574 236.384 350.453 236.363C349.259 236.342 347.941 236.547 346.567 236.959C345.725 237.215 345.524 237.275 345.348 237.329C343.375 237.935 342.462 238.212 341.504 238.212C340.662 238.209 339.943 237.995 338.607 237.6C337.998 237.42 337.251 237.197 336.292 236.938C334.746 236.52 333.266 236.369 331.948 236.526Z" fill="black"/>
<path d="M645.737 123.793C646.844 122.884 648.207 122.36 649.729 122.177C651.283 121.99 653.003 122.162 654.775 122.643C655.748 122.908 656.505 123.131 657.125 123.315C658.299 123.661 658.929 123.851 659.5 123.851C660.187 123.854 661.015 123.598 662.809 123.05C663.365 122.878 663.975 122.692 664.035 122.674C665.585 122.207 667.093 121.975 668.482 122.002C669.884 122.029 671.166 122.312 672.252 122.872C673.795 123.67 674.648 124.739 675.088 125.952C675.511 127.108 675.546 128.373 675.465 129.652C675.349 131.498 674.975 133.304 674.341 135.069C673.735 136.758 672.893 138.407 671.818 140.021C672.364 142.954 672.516 145.591 672.421 147.921C672.326 150.327 671.977 152.401 671.536 154.132C671.057 156.029 670.367 157.495 669.602 158.254C669.165 158.688 668.675 158.934 668.147 158.965C667.587 158.995 667.058 158.787 666.589 158.305C665.934 157.631 665.339 156.297 664.895 154.156C664.771 153.563 664.701 152.91 664.669 152.627L664.659 152.546L664.637 152.377C664.151 148.162 663.672 144.013 659.342 143.971C657.277 144.375 656.188 145.206 655.582 146.434C654.92 147.78 654.761 149.661 654.578 151.962V151.971C654.553 152.29 654.469 153.365 654.317 154.147C653.898 156.318 653.295 157.67 652.626 158.347C652.157 158.817 651.632 159.025 651.072 158.998C650.543 158.974 650.05 158.733 649.613 158.305C648.842 157.553 648.154 156.092 647.714 154.172C647.351 152.585 647.073 150.48 646.932 147.9C646.808 145.624 646.794 142.975 646.925 139.982C646.181 138.528 645.519 137.065 644.98 135.586C644.423 134.057 643.997 132.506 643.75 130.926C643.546 129.604 643.391 128.394 643.599 127.235C643.821 126.009 644.423 124.877 645.737 123.793ZM649.948 123.526C648.753 123.67 647.693 124.073 646.844 124.775C645.822 125.618 645.353 126.494 645.184 127.43C645.004 128.43 645.145 129.532 645.336 130.742C645.568 132.229 645.973 133.705 646.509 135.174C647.045 136.646 647.714 138.106 648.464 139.57C648.51 139.66 648.535 139.762 648.531 139.868C648.394 142.884 648.408 145.552 648.535 147.837C648.669 150.333 648.94 152.368 649.293 153.907C649.68 155.596 650.233 156.83 650.822 157.405C650.97 157.55 651.09 157.631 651.171 157.634C651.22 157.637 651.301 157.583 651.421 157.465C651.918 156.965 652.39 155.833 652.756 153.928C652.894 153.22 652.975 152.184 652.999 151.877V151.868C653.19 149.445 653.359 147.464 654.127 145.901C654.948 144.239 656.385 143.125 659.091 142.616V142.619C659.144 142.61 659.201 142.604 659.257 142.604C665.124 142.583 665.677 147.373 666.237 152.239L666.255 152.407V152.41L666.265 152.495C666.293 152.747 666.357 153.332 666.48 153.919C666.871 155.815 667.34 156.935 667.826 157.435C667.939 157.553 668.016 157.607 668.059 157.604C668.136 157.601 668.253 157.516 668.4 157.369C668.992 156.779 669.56 155.526 669.983 153.843C670.405 152.169 670.744 150.176 670.835 147.876C670.927 145.567 670.772 142.945 670.208 140.012C670.173 139.859 670.201 139.693 670.303 139.546C671.388 137.953 672.227 136.327 672.826 134.665C673.421 133.006 673.774 131.311 673.88 129.58C673.95 128.439 673.925 127.325 673.569 126.356C673.238 125.443 672.597 124.64 671.431 124.04C670.589 123.604 669.574 123.384 668.453 123.363C667.259 123.342 665.941 123.547 664.567 123.959C663.725 124.215 663.524 124.275 663.348 124.329C661.375 124.935 660.462 125.212 659.504 125.212C658.662 125.209 657.943 124.995 656.607 124.6C655.998 124.42 655.251 124.197 654.292 123.938C652.746 123.52 651.266 123.369 649.948 123.526Z" fill="black"/>
<path d="M168.737 283.793C169.844 282.884 171.207 282.36 172.729 282.177C174.283 281.99 176.003 282.162 177.775 282.643C178.748 282.908 179.505 283.131 180.125 283.315C181.299 283.661 181.929 283.851 182.5 283.851C183.187 283.854 184.015 283.598 185.809 283.05C186.365 282.878 186.975 282.692 187.035 282.674C188.585 282.207 190.093 281.975 191.482 282.002C192.884 282.029 194.166 282.312 195.252 282.872C196.795 283.67 197.648 284.739 198.088 285.952C198.511 287.108 198.546 288.373 198.465 289.652C198.349 291.498 197.975 293.304 197.341 295.069C196.735 296.758 195.893 298.407 194.818 300.021C195.364 302.954 195.516 305.591 195.421 307.921C195.326 310.327 194.977 312.401 194.536 314.132C194.057 316.029 193.367 317.495 192.602 318.254C192.165 318.688 191.675 318.934 191.147 318.965C190.587 318.995 190.058 318.787 189.589 318.305C188.934 317.631 188.339 316.297 187.895 314.156C187.771 313.563 187.701 312.91 187.669 312.627L187.659 312.546L187.637 312.377C187.151 308.162 186.672 304.013 182.342 303.971C180.277 304.375 179.188 305.206 178.582 306.434C177.92 307.78 177.761 309.661 177.578 311.962V311.971C177.553 312.29 177.469 313.365 177.317 314.147C176.898 316.318 176.295 317.67 175.626 318.347C175.157 318.817 174.632 319.025 174.072 318.998C173.543 318.974 173.05 318.733 172.613 318.305C171.842 317.553 171.154 316.092 170.714 314.172C170.351 312.585 170.073 310.48 169.932 307.9C169.808 305.624 169.794 302.975 169.925 299.982C169.181 298.528 168.519 297.065 167.98 295.586C167.423 294.057 166.997 292.506 166.75 290.926C166.546 289.604 166.391 288.394 166.599 287.235C166.821 286.009 167.423 284.877 168.737 283.793ZM172.948 283.526C171.753 283.67 170.693 284.073 169.844 284.775C168.822 285.618 168.353 286.494 168.184 287.43C168.004 288.43 168.145 289.532 168.336 290.742C168.568 292.229 168.973 293.705 169.509 295.174C170.045 296.646 170.714 298.106 171.464 299.57C171.51 299.66 171.535 299.762 171.531 299.868C171.394 302.884 171.408 305.552 171.535 307.837C171.669 310.333 171.94 312.368 172.293 313.907C172.68 315.596 173.233 316.83 173.822 317.405C173.97 317.55 174.09 317.631 174.171 317.634C174.22 317.637 174.301 317.583 174.421 317.465C174.918 316.965 175.39 315.833 175.756 313.928C175.894 313.22 175.975 312.184 175.999 311.877V311.868C176.19 309.445 176.359 307.464 177.127 305.901C177.948 304.239 179.385 303.125 182.091 302.616V302.619C182.144 302.61 182.201 302.604 182.257 302.604C188.124 302.583 188.677 307.373 189.237 312.239L189.255 312.407V312.41L189.265 312.495C189.293 312.747 189.357 313.332 189.48 313.919C189.871 315.815 190.34 316.935 190.826 317.435C190.939 317.553 191.016 317.607 191.059 317.604C191.136 317.601 191.253 317.516 191.4 317.369C191.992 316.779 192.56 315.526 192.983 313.843C193.405 312.169 193.744 310.176 193.835 307.876C193.927 305.567 193.772 302.945 193.208 300.012C193.173 299.859 193.201 299.693 193.303 299.546C194.388 297.953 195.227 296.327 195.826 294.665C196.421 293.006 196.774 291.311 196.88 289.58C196.95 288.439 196.925 287.325 196.569 286.356C196.238 285.443 195.597 284.64 194.431 284.04C193.589 283.604 192.574 283.384 191.453 283.363C190.259 283.342 188.941 283.547 187.567 283.959C186.725 284.215 186.524 284.275 186.348 284.329C184.375 284.935 183.462 285.212 182.504 285.212C181.662 285.209 180.943 284.995 179.607 284.6C178.998 284.42 178.251 284.197 177.292 283.938C175.746 283.52 174.266 283.369 172.948 283.526Z" fill="black"/>
<path d="M220.226 131.281C221.63 131 223.08 131.18 224.509 131.735C225.968 132.302 227.404 133.263 228.741 134.522C229.474 135.214 230.037 135.767 230.498 136.221C231.37 137.079 231.837 137.544 232.34 137.812C232.945 138.139 233.796 138.303 235.636 138.664C236.208 138.775 236.834 138.897 236.895 138.909C238.483 139.228 239.922 139.733 241.134 140.411C242.358 141.095 243.357 141.949 244.05 142.954C245.036 144.385 245.285 145.729 245.102 147.007C244.931 148.226 244.366 149.358 243.692 150.448C242.721 152.022 241.541 153.44 240.15 154.697C238.82 155.902 237.3 156.961 235.592 157.878C234.693 160.722 233.585 163.12 232.404 165.131C231.187 167.209 229.903 168.874 228.699 170.194C227.383 171.642 226.083 172.61 225.051 172.919C224.462 173.096 223.913 173.083 223.433 172.861C222.925 172.624 222.556 172.192 222.37 171.546C222.109 170.642 222.212 169.185 222.828 167.088C222.999 166.507 223.244 165.897 223.349 165.632L223.378 165.556L223.439 165.397C224.995 161.45 226.526 157.564 222.726 155.488C220.714 154.871 219.362 155.092 218.249 155.89C217.031 156.765 216.005 158.351 214.76 160.293L214.756 160.301C214.584 160.571 214.003 161.48 213.501 162.099C212.109 163.816 210.941 164.725 210.031 165.008C209.397 165.201 208.836 165.137 208.354 164.85C207.899 164.579 207.578 164.135 207.393 163.552C207.067 162.524 207.149 160.913 207.665 159.011C208.092 157.44 208.837 155.452 209.928 153.11C210.891 151.044 212.126 148.7 213.65 146.121C213.679 144.488 213.784 142.886 214.004 141.328C214.233 139.716 214.587 138.148 215.114 136.637C215.556 135.375 215.989 134.234 216.719 133.31C217.492 132.333 218.556 131.618 220.226 131.281ZM224.067 133.027C222.945 132.592 221.819 132.449 220.74 132.668C219.441 132.93 218.615 133.482 218.025 134.229C217.396 135.026 217.002 136.064 216.599 137.222C216.104 138.643 215.767 140.136 215.548 141.684C215.327 143.235 215.23 144.838 215.203 146.483C215.201 146.584 215.174 146.686 215.121 146.777C213.58 149.374 212.336 151.733 211.372 153.809C210.315 156.074 209.596 157.997 209.182 159.52C208.728 161.193 208.635 162.542 208.884 163.327C208.946 163.524 209.013 163.652 209.083 163.693C209.126 163.719 209.223 163.709 209.384 163.662C210.057 163.455 211.007 162.679 212.228 161.17C212.682 160.61 213.241 159.735 213.407 159.476L213.412 159.468C214.721 157.419 215.803 155.751 217.216 154.735C218.723 153.655 220.516 153.349 223.143 154.175L223.141 154.177C223.192 154.194 223.245 154.215 223.295 154.242C228.48 156.986 226.712 161.472 224.916 166.028L224.852 166.185L224.85 166.188L224.82 166.267C224.726 166.504 224.507 167.049 224.339 167.625C223.791 169.482 223.677 170.691 223.87 171.361C223.915 171.517 223.957 171.602 223.996 171.619C224.066 171.653 224.208 171.633 224.408 171.573C225.208 171.331 226.299 170.493 227.464 169.208C228.625 167.93 229.862 166.331 231.026 164.345C232.195 162.351 233.293 159.965 234.176 157.112C234.217 156.96 234.32 156.827 234.48 156.745C236.187 155.851 237.693 154.812 239.004 153.628C240.31 152.445 241.419 151.115 242.328 149.638C242.927 148.665 243.43 147.67 243.573 146.647C243.71 145.687 243.523 144.676 242.776 143.598C242.239 142.816 241.447 142.144 240.468 141.598C239.425 141.017 238.166 140.577 236.759 140.294C235.896 140.123 235.69 140.082 235.509 140.047C233.484 139.651 232.548 139.466 231.703 139.015C230.961 138.615 230.428 138.088 229.435 137.111C228.983 136.665 228.429 136.117 227.705 135.437C226.538 134.339 225.303 133.51 224.067 133.027Z" fill="black"/>
<path d="M210.737 470.207C211.844 471.116 213.207 471.64 214.729 471.823C216.283 472.01 218.003 471.838 219.775 471.357C220.748 471.092 221.505 470.869 222.125 470.685C223.299 470.339 223.929 470.149 224.5 470.149C225.187 470.146 226.015 470.402 227.809 470.95C228.365 471.122 228.975 471.308 229.035 471.326C230.585 471.793 232.093 472.025 233.482 471.998C234.884 471.971 236.166 471.688 237.252 471.128C238.795 470.33 239.648 469.261 240.088 468.048C240.511 466.892 240.546 465.627 240.465 464.348C240.349 462.502 239.975 460.696 239.341 458.931C238.735 457.242 237.893 455.593 236.818 453.979C237.364 451.046 237.516 448.409 237.421 446.079C237.326 443.673 236.977 441.599 236.536 439.868C236.057 437.971 235.367 436.505 234.602 435.746C234.165 435.312 233.675 435.066 233.147 435.035C232.587 435.005 232.058 435.213 231.589 435.695C230.934 436.369 230.339 437.703 229.895 439.844C229.771 440.437 229.701 441.09 229.669 441.373L229.659 441.454L229.637 441.623C229.151 445.838 228.672 449.987 224.342 450.029C222.277 449.625 221.188 448.794 220.582 447.566C219.92 446.22 219.761 444.339 219.578 442.038V442.029C219.553 441.71 219.469 440.635 219.317 439.853C218.898 437.682 218.295 436.33 217.626 435.653C217.157 435.183 216.632 434.975 216.072 435.002C215.543 435.026 215.05 435.267 214.613 435.695C213.842 436.447 213.154 437.908 212.714 439.828C212.351 441.415 212.073 443.52 211.932 446.1C211.808 448.376 211.794 451.025 211.925 454.018C211.181 455.472 210.519 456.935 209.98 458.414C209.423 459.943 208.997 461.494 208.75 463.074C208.546 464.396 208.391 465.606 208.599 466.765C208.821 467.991 209.423 469.123 210.737 470.207ZM214.948 470.474C213.753 470.33 212.693 469.927 211.844 469.225C210.822 468.382 210.353 467.506 210.184 466.57C210.004 465.57 210.145 464.468 210.336 463.258C210.568 461.771 210.973 460.295 211.509 458.826C212.045 457.354 212.714 455.894 213.464 454.43C213.51 454.34 213.535 454.238 213.531 454.132C213.394 451.116 213.408 448.448 213.535 446.163C213.669 443.667 213.94 441.632 214.293 440.093C214.68 438.404 215.233 437.17 215.822 436.595C215.97 436.45 216.09 436.369 216.171 436.366C216.22 436.363 216.301 436.417 216.421 436.535C216.918 437.035 217.39 438.167 217.756 440.072C217.894 440.78 217.975 441.816 217.999 442.123V442.132C218.19 444.555 218.359 446.536 219.127 448.099C219.948 449.761 221.385 450.875 224.091 451.384V451.381C224.144 451.39 224.201 451.396 224.257 451.396C230.124 451.417 230.677 446.627 231.237 441.761L231.255 441.593V441.59L231.265 441.505C231.293 441.253 231.357 440.668 231.48 440.081C231.871 438.185 232.34 437.065 232.826 436.565C232.939 436.447 233.016 436.393 233.059 436.396C233.136 436.399 233.253 436.484 233.4 436.631C233.992 437.221 234.56 438.474 234.983 440.157C235.405 441.831 235.744 443.824 235.835 446.124C235.927 448.433 235.772 451.055 235.208 453.988C235.173 454.141 235.201 454.307 235.303 454.454C236.388 456.047 237.227 457.673 237.826 459.335C238.421 460.994 238.774 462.689 238.88 464.42C238.95 465.561 238.925 466.675 238.569 467.644C238.238 468.557 237.597 469.36 236.431 469.96C235.589 470.396 234.574 470.616 233.453 470.637C232.259 470.658 230.941 470.453 229.567 470.041C228.725 469.785 228.524 469.725 228.348 469.671C226.375 469.065 225.462 468.788 224.504 468.788C223.662 468.791 222.943 469.005 221.607 469.4C220.998 469.58 220.251 469.803 219.292 470.062C217.746 470.48 216.266 470.631 214.948 470.474Z" fill="black"/>
<path d="M492.856 166.311C492.87 164.879 493.344 163.498 494.182 162.213C495.037 160.903 496.273 159.696 497.781 158.647C498.609 158.072 499.267 157.635 499.806 157.278C500.825 156.601 501.376 156.24 501.742 155.802C502.186 155.278 502.522 154.479 503.255 152.752C503.481 152.216 503.73 151.629 503.754 151.571C504.393 150.083 505.184 148.779 506.097 147.732C507.019 146.675 508.06 145.874 509.186 145.403C510.789 144.733 512.156 144.766 513.369 145.208C514.526 145.627 515.518 146.412 516.446 147.297C517.786 148.572 518.93 150.018 519.874 151.638C520.779 153.188 521.502 154.893 522.048 156.753C524.646 158.219 526.764 159.798 528.489 161.368C530.271 162.986 531.636 164.586 532.68 166.036C533.825 167.622 534.505 169.094 534.595 170.167C534.646 170.78 534.521 171.314 534.204 171.738C533.868 172.187 533.369 172.459 532.699 172.508C531.761 172.577 530.356 172.176 528.431 171.141C527.897 170.855 527.351 170.489 527.114 170.331L527.045 170.287L526.902 170.195C523.36 167.859 519.873 165.561 517.058 168.852C516.04 170.693 515.978 172.061 516.529 173.315C517.135 174.687 518.475 176.018 520.12 177.636L520.127 177.642C520.355 177.866 521.125 178.621 521.627 179.24C523.021 180.956 523.67 182.287 523.759 183.235C523.817 183.896 523.639 184.432 523.259 184.844C522.901 185.233 522.399 185.456 521.791 185.516C520.718 185.624 519.158 185.212 517.403 184.316C515.954 183.574 514.163 182.435 512.095 180.885C510.272 179.517 508.232 177.826 506.023 175.803C504.431 175.438 502.884 175.006 501.405 174.469C499.876 173.913 498.413 173.243 497.044 172.417C495.9 171.724 494.873 171.065 494.118 170.161C493.322 169.204 492.842 168.015 492.856 166.311ZM495.356 162.913C494.699 163.921 494.327 164.993 494.318 166.094C494.308 167.419 494.678 168.341 495.287 169.072C495.937 169.852 496.872 170.452 497.922 171.084C499.211 171.861 500.602 172.499 502.072 173.032C503.544 173.568 505.093 173.993 506.696 174.358C506.795 174.381 506.889 174.428 506.968 174.498C509.191 176.542 511.244 178.245 513.077 179.616C515.075 181.117 516.809 182.217 518.214 182.936C519.757 183.724 521.059 184.093 521.877 184.012C522.083 183.991 522.223 183.952 522.277 183.892C522.311 183.856 522.321 183.759 522.308 183.592C522.245 182.89 521.681 181.801 520.456 180.295C520.002 179.735 519.26 179.008 519.041 178.792L519.034 178.786C517.299 177.083 515.89 175.68 515.186 174.088C514.44 172.391 514.51 170.573 515.859 168.173L515.861 168.175C515.889 168.129 515.92 168.082 515.956 168.038C519.71 163.529 523.736 166.183 527.824 168.88L527.964 168.975L527.966 168.977L528.038 169.023C528.25 169.164 528.738 169.491 529.267 169.773C530.972 170.692 532.131 171.053 532.826 171.001C532.989 170.99 533.08 170.966 533.105 170.932C533.153 170.87 533.163 170.727 533.145 170.519C533.073 169.686 532.478 168.447 531.46 167.041C530.449 165.642 529.139 164.102 527.435 162.554C525.725 161 523.616 159.434 521.006 157.981C520.866 157.91 520.757 157.782 520.71 157.609C520.187 155.754 519.48 154.067 518.591 152.54C517.703 151.018 516.63 149.658 515.372 148.465C514.543 147.678 513.673 146.981 512.702 146.631C511.79 146.299 510.762 146.273 509.554 146.782C508.678 147.147 507.858 147.783 507.121 148.628C506.338 149.53 505.648 150.671 505.081 151.989C504.736 152.799 504.653 152.992 504.582 153.161C503.777 155.062 503.403 155.939 502.787 156.674C502.244 157.317 501.618 157.731 500.458 158.5C499.928 158.852 499.277 159.281 498.463 159.849C497.149 160.765 496.082 161.802 495.356 162.913Z" fill="black"/>
<path d="M558.461 402.974C559.862 402.678 561.313 402.843 562.748 403.383C564.213 403.934 565.659 404.88 567.009 406.126C567.749 406.81 568.318 407.357 568.783 407.806C569.664 408.655 570.136 409.115 570.643 409.378C571.251 409.698 572.103 409.853 573.947 410.195C574.52 410.3 575.147 410.416 575.209 410.427C576.799 410.729 578.244 411.22 579.463 411.885C580.695 412.556 581.702 413.399 582.406 414.397C583.406 415.817 583.669 417.159 583.5 418.439C583.341 419.659 582.789 420.797 582.126 421.895C581.171 423.478 580.006 424.908 578.629 426.181C577.311 427.399 575.803 428.474 574.104 429.409C573.235 432.262 572.152 434.672 570.992 436.695C569.797 438.785 568.53 440.464 567.34 441.796C566.039 443.258 564.75 444.239 563.721 444.56C563.133 444.742 562.585 444.735 562.102 444.518C561.591 444.286 561.218 443.858 561.025 443.214C560.755 442.313 560.843 440.855 561.437 438.752C561.601 438.168 561.841 437.556 561.943 437.291L561.971 437.214L562.03 437.054C563.545 433.091 565.035 429.19 561.213 427.153C559.195 426.558 557.846 426.792 556.741 427.602C555.532 428.49 554.523 430.086 553.299 432.042L553.294 432.05C553.125 432.321 552.554 433.236 552.058 433.86C550.684 435.592 549.526 436.513 548.619 436.805C547.987 437.005 547.425 436.947 546.94 436.665C546.483 436.399 546.156 435.958 545.966 435.377C545.629 434.353 545.694 432.74 546.19 430.833C546.6 429.258 547.325 427.263 548.391 424.909C549.333 422.833 550.543 420.477 552.04 417.882C552.052 416.249 552.14 414.645 552.344 413.085C552.557 411.471 552.894 409.899 553.405 408.383C553.834 407.116 554.255 405.971 554.975 405.039C555.737 404.054 556.795 403.328 558.461 402.974ZM562.319 404.68C561.193 404.257 560.066 404.125 558.989 404.355C557.693 404.631 556.873 405.192 556.291 405.944C555.67 406.748 555.286 407.791 554.896 408.952C554.416 410.379 554.095 411.875 553.891 413.425C553.687 414.978 553.606 416.583 553.597 418.227C553.596 418.328 553.57 418.43 553.518 418.522C552.004 421.135 550.785 423.508 549.842 425.593C548.809 427.869 548.11 429.8 547.712 431.327C547.276 433.004 547.197 434.355 547.454 435.136C547.518 435.333 547.587 435.46 547.658 435.5C547.7 435.526 547.797 435.515 547.957 435.466C548.629 435.252 549.57 434.466 550.775 432.945C551.224 432.381 551.774 431.499 551.937 431.238L551.941 431.23C553.229 429.168 554.294 427.489 555.696 426.457C557.192 425.362 558.981 425.038 561.617 425.836L561.615 425.838C561.666 425.855 561.719 425.875 561.769 425.902C566.983 428.591 565.262 433.096 563.513 437.67L563.451 437.828L563.45 437.83L563.42 437.91C563.328 438.147 563.115 438.695 562.953 439.273C562.425 441.136 562.323 442.345 562.524 443.013C562.57 443.169 562.613 443.253 562.652 443.27C562.722 443.303 562.864 443.282 563.064 443.22C563.861 442.969 564.943 442.12 566.095 440.823C567.243 439.533 568.463 437.921 569.606 435.923C570.753 433.917 571.826 431.519 572.68 428.658C572.72 428.505 572.821 428.371 572.98 428.288C574.678 427.376 576.172 426.321 577.471 425.123C578.765 423.927 579.86 422.586 580.753 421.099C581.342 420.119 581.835 419.12 581.967 418.095C582.094 417.133 581.896 416.124 581.138 415.054C580.593 414.278 579.794 413.615 578.81 413.079C577.76 412.509 576.497 412.082 575.087 411.813C574.222 411.652 574.016 411.612 573.835 411.579C571.805 411.205 570.868 411.029 570.018 410.587C569.272 410.195 568.733 409.674 567.731 408.708C567.273 408.266 566.713 407.724 565.983 407.051C564.804 405.966 563.561 405.149 562.319 404.68Z" fill="black"/>
<path d="M104.439 404.497C104.111 403.104 104.241 401.649 104.746 400.201C105.263 398.724 106.175 397.256 107.388 395.877C108.054 395.121 108.588 394.539 109.026 394.063C109.853 393.162 110.301 392.679 110.553 392.167C110.858 391.551 110.993 390.695 111.291 388.844C111.382 388.268 111.483 387.639 111.493 387.577C111.757 385.98 112.213 384.524 112.849 383.289C113.491 382.042 114.31 381.015 115.291 380.288C116.687 379.254 118.022 378.959 119.305 379.098C120.529 379.227 121.68 379.753 122.793 380.389C124.399 381.306 125.856 382.437 127.161 383.784C128.41 385.072 129.52 386.554 130.496 388.23C133.369 389.031 135.803 390.057 137.854 391.169C139.971 392.314 141.68 393.54 143.04 394.698C144.532 395.964 145.544 397.23 145.889 398.25C146.085 398.834 146.091 399.382 145.886 399.87C145.666 400.386 145.246 400.769 144.608 400.978C143.714 401.269 142.254 401.216 140.136 400.672C139.55 400.521 138.932 400.297 138.664 400.201L138.586 400.174L138.426 400.119C134.427 398.699 130.492 397.302 128.547 401.171C127.999 403.203 128.266 404.546 129.102 405.631C130.018 406.819 131.638 407.79 133.622 408.967L133.63 408.971C133.906 409.134 134.833 409.683 135.469 410.164C137.234 411.497 138.182 412.633 138.495 413.532C138.71 414.16 138.666 414.723 138.395 415.214C138.14 415.678 137.707 416.015 137.13 416.219C136.115 416.58 134.501 416.553 132.583 416.103C130.998 415.73 128.987 415.053 126.608 414.043C124.51 413.151 122.125 411.997 119.496 410.562C117.863 410.589 116.258 410.539 114.693 410.372C113.075 410.198 111.495 409.898 109.967 409.423C108.691 409.024 107.536 408.63 106.587 407.933C105.585 407.194 104.834 406.155 104.439 404.497ZM106.053 400.599C105.657 401.735 105.552 402.865 105.808 403.936C106.115 405.225 106.695 406.032 107.461 406.596C108.279 407.198 109.331 407.556 110.501 407.919C111.939 408.365 113.442 408.651 114.996 408.817C116.554 408.985 118.16 409.027 119.804 408.998C119.905 408.996 120.008 409.019 120.101 409.069C122.749 410.521 125.15 411.683 127.257 412.576C129.557 413.555 131.504 414.208 133.04 414.569C134.727 414.965 136.079 415.012 136.855 414.737C137.049 414.668 137.175 414.596 137.214 414.525C137.238 414.482 137.225 414.385 137.172 414.226C136.943 413.56 136.134 412.637 134.585 411.469C134.01 411.034 133.116 410.505 132.851 410.347L132.843 410.343C130.751 409.105 129.047 408.081 127.982 406.703C126.852 405.234 126.485 403.453 127.22 400.799L127.223 400.8C127.238 400.749 127.257 400.696 127.282 400.645C129.847 395.369 134.391 396.982 139.006 398.622L139.165 398.68L139.168 398.682L139.248 398.709C139.488 398.795 140.04 398.996 140.621 399.144C142.496 399.628 143.708 399.7 144.371 399.484C144.526 399.435 144.609 399.389 144.625 399.35C144.656 399.279 144.632 399.137 144.565 398.939C144.296 398.148 143.421 397.087 142.096 395.966C140.78 394.849 139.139 393.668 137.115 392.572C135.082 391.473 132.659 390.457 129.778 389.672C129.625 389.636 129.489 389.537 129.401 389.381C128.449 387.705 127.359 386.236 126.131 384.966C124.904 383.701 123.537 382.638 122.03 381.781C121.036 381.215 120.026 380.746 118.998 380.639C118.034 380.534 117.029 380.756 115.978 381.539C115.215 382.103 114.571 382.917 114.058 383.914C113.513 384.977 113.117 386.25 112.882 387.666C112.741 388.534 112.706 388.741 112.677 388.923C112.351 390.961 112.198 391.902 111.776 392.763C111.402 393.518 110.894 394.069 109.952 395.094C109.521 395.562 108.992 396.134 108.337 396.881C107.28 398.085 106.493 399.347 106.053 400.599Z" fill="black"/>
</svg>
