<?xml version="1.0" encoding="UTF-8"?>
<svg id="Layer_2" data-name="Layer 2" xmlns="http://www.w3.org/2000/svg" viewBox="0 0 71.31 72.7">
  <defs>
    <style>
      .cls-1 {
        fill: #eee6d9;
      }

      .cls-2 {
        fill: #f69a9b;
      }

      .cls-3 {
        fill: #ebcbca;
      }

      .cls-4 {
        fill: none;
        stroke: #851256;
        stroke-linecap: round;
        stroke-linejoin: round;
      }

      .cls-5 {
        fill: #ec524f;
      }
    </style>
  </defs>
  <g id="Capa_1" data-name="Capa 1">
    <g>
      <g>
        <path class="cls-1" d="M29.99,46.19c.16,0,.33,0,.49,0,.3,0,.6,0,.89,.02,11.08,.74,9.65,22.28,9.65,22.28,.49,5.41,5.12,3.31,5.12,3.31,11.09-7.93,8.28-34.77,8.28-34.77,8.28-12.14,3.31-25.94,3.31-25.94-2.22-5.77-6.52-10.05-12.84-10.56-5.43-.44-9.89,3.9-15.04,4.19C24.71,4.43,20.25,.09,14.82,.53,8.5,1.05,4.2,5.33,1.98,11.09c0,0-4.97,13.8,3.31,25.94,0,0-2.81,26.83,8.28,34.77,0,0,4.62,2.09,5.12-3.31,0,0-1.43-21.54,9.65-22.28,.55-.04,1.1-.03,1.66-.02Z"/>
        <path class="cls-2" d="M47.3,31.59c-2.64,.66-4.99,2.18-6.08,4.77-1.07,2.54-1.31,5.53-.47,8.18,1.51,4.78,5.84,8.39,10.72,9.38,.87,.18,1.77,.26,2.67,.27,1.16-8.78,.28-17.15,.28-17.15,1.15-1.69,2.04-3.41,2.73-5.13-3.28-.81-6.72-1.1-9.85-.31Z"/>
        <path class="cls-5" d="M49.62,35.26c-2.8,.9-4.68,3.42-3.96,6.46,.53,2.26,2.36,4.26,4.72,4.64,1.83,.29,3.28-.41,4.36-1.58,.02-4.53-.32-7.74-.32-7.74,.3-.44,.58-.88,.84-1.31-1.49-1.09-3.95-1-5.64-.46Z"/>
        <path class="cls-3" d="M23.28,48.59c-.2,.1-.4,.2-.6,.31-3.17,1.87-3.6,5.16-4.42,8.45-.46,1.86-2.05,8.48-5.13,5.47-1.8-1.76-2.27-4.64-2.62-7.02-.39-2.6-.72-5.24-.83-7.86-.22-5.45,.61-11.19,4.83-15-1.01-.69-2.18-1.15-3.13-1.92-1.07-.87-1.8-2.02-2.31-3.29-1.2-3-2.02-6.21-1.89-9.46,.18-4.77,1.74-9.96,6.77-11.54,4.91-1.54,9.46,.41,14.07,1.96,2.97,.99,6.28,1.88,9.44,1.33,2.2-.38,4.59-1.39,4.8-3.8-2.09,1.09-4.85,.96-7.08,.56-1.81-.32-3.87-.87-5.36-2.07C24.69,4.41,20.24,.09,14.82,.53,8.5,1.05,4.2,5.33,1.98,11.09c0,0-4.97,13.8,3.31,25.94,0,0-2.81,26.83,8.28,34.77,0,0,4.62,2.09,5.12-3.31,0,0-.94-14.14,4.6-19.9Z"/>
        <g>
          <path class="cls-4" d="M29.99,46.19c.16,0,.33,0,.49,0,.3,0,.6,0,.89,.02,11.08,.74,9.65,22.28,9.65,22.28,.49,5.41,5.12,3.31,5.12,3.31,11.09-7.93,8.28-34.77,8.28-34.77,8.28-12.14,3.31-25.94,3.31-25.94-2.22-5.77-6.52-10.05-12.84-10.56-5.43-.44-9.89,3.9-15.04,4.19C24.71,4.43,20.25,.09,14.82,.53,8.5,1.05,4.2,5.33,1.98,11.09c0,0-4.97,13.8,3.31,25.94,0,0-2.81,26.83,8.28,34.77,0,0,4.62,2.09,5.12-3.31,0,0-1.43-21.54,9.65-22.28,.55-.04,1.1-.03,1.66-.02Z"/>
          <path class="cls-4" d="M26.71,4.09s13.18,4.68,15.5,1.46"/>
        </g>
      </g>
      <g>
        <path class="cls-4" d="M57.68,46.21c1.73,1.89,6.78,6.24,8.52,7.97"/>
        <path class="cls-4" d="M58.46,42.9c2.52,0,7.73,.03,12.35-.24"/>
        <path class="cls-4" d="M58.46,39.59c2.21-1.58,6.76-4.65,9.75-7.44"/>
      </g>
    </g>
  </g>
</svg>