<?xml version="1.0" encoding="UTF-8"?>
<svg id="Layer_2" data-name="Layer 2" xmlns="http://www.w3.org/2000/svg" viewBox="0 0 57.17 84.4">
  <defs>
    <style>
      .cls-1 {
        fill: #d3c693;
      }

      .cls-2 {
        fill: #eee6d9;
      }

      .cls-3 {
        fill: #ebcbca;
      }

      .cls-4 {
        fill: #75443e;
      }

      .cls-5 {
        fill: none;
        stroke: #851256;
        stroke-linecap: round;
        stroke-linejoin: round;
      }
    </style>
  </defs>
  <g id="Capa_1" data-name="Capa 1">
    <g>
      <g>
        <path class="cls-2" d="M28.71,59.02c.16,0,.31,0,.47,0,.28,0,.57,0,.85,.02,10.6,.7,9.23,21.31,9.23,21.31,.47,5.17,4.89,3.17,4.89,3.17,10.61-7.59,7.92-33.26,7.92-33.26,7.92-11.62,3.17-24.81,3.17-24.82-2.12-5.52-6.24-9.61-12.28-10.1-5.19-.42-9.46,3.73-14.38,4-4.92-.28-9.19-4.43-14.38-4-6.05,.49-10.16,4.59-12.29,10.1,0,0-4.75,13.2,3.17,24.82,0,0-2.69,25.67,7.92,33.26,0,0,4.42,2,4.9-3.17,0,0-1.37-20.6,9.23-21.31,.53-.04,1.06-.03,1.59-.02Z"/>
        <path class="cls-1" d="M32.32,22.25c3.02,1.14,6.38,1.59,9.59,1.22,2.96-.34,6.36-1.41,8.02-4.09,.2-.32,.36-.66,.5-.99-2.02-1.7-4.51-2.81-7.46-3.05-5.19-.42-9.46,3.73-14.38,4-.24-.01-.47-.04-.7-.07,1.08,1.41,2.87,2.39,4.44,2.98Z"/>
        <path class="cls-4" d="M33.06,18.2c1.09,2.95,5.87,2.88,8.45,1.84,2.15-.87,3.8-2.71,2.37-4.6-.3-.04-.6-.08-.91-.11-3.57-.29-6.7,1.58-9.91,2.87Z"/>
        <path class="cls-3" d="M25.99,18.86c-3.89-1.14-7.53-3.88-11.79-3.53-6.05,.49-10.16,4.59-12.29,10.1,0,0-4.75,13.2,3.17,24.82,0,0-2.69,25.67,7.92,33.26,0,0,4.42,2,4.9-3.17,0,0-.9-13.52,4.4-19.03-.19,.09-.39,.19-.57,.3-3.04,1.79-3.45,4.94-4.23,8.09-.44,1.77-1.96,8.11-4.9,5.23-1.72-1.68-2.17-4.44-2.51-6.72-.38-2.49-.69-5.01-.79-7.52-.21-5.21,.59-10.7,4.62-14.35-.97-.66-2.09-1.1-3-1.84-1.03-.83-1.72-1.93-2.21-3.15-1.15-2.87-1.93-5.94-1.81-9.05,.17-4.56,1.67-9.53,6.48-11.04,4.69-1.47,9.05,.4,13.46,1.87,2.64,.88,5.55,1.66,8.36,1.35-4.05-.16-8.1-2.13-9.2-5.63Z"/>
        <path class="cls-3" d="M56.35,39.2c-.12,.3-.26,.6-.42,.9-1.2,2.22-3.01,3.96-5.13,5.31-1.5,.94-3.07,1.74-4.66,2.52-.36,.18-.73,.36-1.09,.54-.35,.18,0,.3,.26,.68,.48,.72,.93,1.46,1.29,2.24,1.37,2.99,1.88,6.23,2.04,9.5,.17,3.49,.47,7.19-.23,10.64-.34,1.64-.84,3.2-1.6,4.69-.45,.89-1,1.94-1.88,2.48-.74,.45-1.87,.77-2.61,.12-.77-.67-.83-1.69-.96-2.65-.29-2.24-.72-4.54-1.23-6.74-.51-2.19-1.17-4.6-2.68-6.33-.75-.85-1.61-1.43-2.55-1.77,5.29,5.52,4.39,19.03,4.39,19.03,.47,5.17,4.89,3.17,4.89,3.17,10.61-7.59,7.92-33.26,7.92-33.26,2.51-3.68,3.75-7.52,4.26-11.05Z"/>
        <g>
          <path class="cls-5" d="M28.71,59.02c.16,0,.31,0,.47,0,.28,0,.57,0,.85,.02,10.6,.7,9.23,21.31,9.23,21.31,.47,5.17,4.89,3.17,4.89,3.17,10.61-7.59,7.92-33.26,7.92-33.26,7.92-11.62,3.17-24.81,3.17-24.82-2.12-5.52-6.24-9.61-12.28-10.1-5.19-.42-9.46,3.73-14.38,4-4.92-.28-9.19-4.43-14.38-4-6.05,.49-10.16,4.59-12.29,10.1,0,0-4.75,13.2,3.17,24.82,0,0-2.69,25.67,7.92,33.26,0,0,4.42,2,4.9-3.17,0,0-1.37-20.6,9.23-21.31,.53-.04,1.06-.03,1.59-.02Z"/>
          <path class="cls-5" d="M25.57,18.74s5.63,6.98,16.42,4.4"/>
        </g>
      </g>
      <g>
        <path class="cls-5" d="M45.38,12.49c1.45-1.98,4.58-7.53,5.88-9.48"/>
        <path class="cls-5" d="M41.13,12.22c0-2.41-.11-7.04-.24-11.72"/>
        <path class="cls-5" d="M37.1,13.33c-3.1-5.58-4.04-6.79-6.2-11.17"/>
      </g>
    </g>
  </g>
</svg>